<?xml version="1.0" encoding="UTF-8"?>
<svg xmlns="http://www.w3.org/2000/svg" version="1.1" xmlns:xlink="http://www.w3.org/1999/xlink" viewBox="0 0 691.1 695.5">
  <defs>
    <style>
      .cls-1 {
        stroke-width: 48px;
      }

      .cls-1, .cls-2, .cls-3 {
        stroke: #4285f4;
      }

      .cls-1, .cls-4 {
        fill: none;
      }

      .cls-5, .cls-6 {
        fill: #fff;
      }

      .cls-5, .cls-7 {
        stroke: #4079bd;
        stroke-width: 2px;
      }

      .cls-2, .cls-8, .cls-9, .cls-3, .cls-10, .cls-7 {
        fill: #4285f4;
      }

      .cls-2, .cls-3 {
        stroke-width: 27px;
      }

      .cls-2, .cls-6, .cls-11, .cls-12 {
        display: none;
      }

      .cls-13 {
        fill: #517bbd;
      }

      .cls-14 {
        clip-path: url(#clippath-1);
      }

      .cls-9 {
        isolation: isolate;
        opacity: .4;
      }

      .cls-6 {
        stroke: #000;
        stroke-miterlimit: 10;
      }

      .cls-10, .cls-11 {
        stroke: #507abd;
        stroke-width: 1.5px;
      }

      .cls-11 {
        fill: #46ac34;
      }

      .cls-15 {
        clip-path: url(#clippath);
      }
    </style>
    <clipPath id="clippath">
      <rect class="cls-4" x="-1164.8" y="-1625.2" width="199.4" height="199.4"/>
    </clipPath>
    <clipPath id="clippath-1">
      <rect class="cls-4" x="1930.2" y="-1617.2" width="199.4" height="199.4"/>
    </clipPath>
  </defs>
  <!-- Generator: Adobe Illustrator 28.6.0, SVG Export Plug-In . SVG Version: 1.2.0 Build 709)  -->
  <g>
    <g id="Warstwa_1">
      <g class="cls-12">
        <g id="Layer_2">
          <path class="cls-9" d="M351.5,378.3c-5.3-23.4-23.5-41.7-46.9-47.1l-218.4-50.3c-.8,5.4-.6,11,.9,16.5l49.2,188.7,23.7,28.1,2.7,9.2c5.1,17.3,18.8,30.9,36.1,35.9l160.4,46.3,42.9-3.7-50.7-223.5h.1Z"/>
          <path class="cls-8" d="M680.3,370.6l-52.7-202.1c-11.7-45-46.8-81.1-91.5-94.1l-194.6-56.5c-46.1-13.4-95.9-.8-130.1,32.8L51.8,207.5c-33.8,33.2-47.4,82.4-35.5,128.3l38,145.8h.4c0,.1,14.5,56.3,14.5,56.3,6.1,23.6,18.8,44.6,35.9,60.9,7.3,6.9,19.3,4.6,23.3-4.6,9.7-22.3,23.4-41.7,33.7-54.5,2.5-3.1,3.3-7.1,2.2-10.9-2.2-7.7-4.2-14.7-4.2-14.7l-52.7-202.1c-1.3-5.1-1.6-10.4-.8-15.5,1.2-8.2,5.1-16,11.2-22l159.5-156.7c5.2-5.1,11.7-8.6,18.6-10.2,6.3-1.4,13-1.3,19.4.6l194.6,56.5c8.3,2.4,15.4,7.5,20.4,14.2,2.9,3.9,5.1,8.4,6.4,13.3l52.7,202.1c3.5,13.4-.5,27.8-10.4,37.5l-159.5,156.7c-.4.4-1.8,1.6-3.7,3.2-9,7.5-21.1,10.1-32.3,7-16.2-4.5-89.3-25.9-89.3-25.9-5.8-1.7-10.6-5.8-13-11.4-.2-.4-.3-.7-.4-1.1-10-25.3-14.4-97.4,155.3-225.7l33.6,93.9,38.6-41.6-51.5-166.3-152.4-42.6-44.5,41.6,119.2,37.9c-161.7,122.2-226.5,238.9-187.3,337.9,19.2,48.5,46.7,62.8,104.9,78l64.7,17.6c43.2,11.7,89.3-.4,121.1-32l41.5-41.2h0l95.6-93.9,25.6-25.1c33.8-33.2,47.4-82.4,35.5-128.3h-.4Z"/>
        </g>
      </g>
      <g class="cls-12">
        <g id="Warstwa_1-2" data-name="Warstwa_1" class="cls-12">
          <g class="cls-12">
            <g class="cls-15">
              <g>
                <path class="cls-13" d="M-967.3-1623.4c-2.5-2.5-6.2-2.5-8.7,0l-16.8,16.8h-72.3c-1.9,0-3.1.6-4.4,1.9l-93.5,93.5c-2.5,2.5-2.5,6.2,0,8.7l74.8,74.8c2.5,2.5,6.2,2.5,8.7,0l93.5-93.5c1.2-1.2,1.9-2.5,1.9-4.4v-72.3l16.8-16.8c2.5-2.5,2.5-6.2,0-8.7h0ZM-996.6-1528l-87.2,87.2-66-66,87.2-87.2h57.3l-26.8,26.8c-2.5,2.5-2.5,6.2,0,8.7s6.2,2.5,8.7,0l26.8-26.8v57.3Z"/>
                <path class="cls-13" d="M-1052.7-1513.1h-62.3c-3.7,0-6.2,2.5-6.2,6.2s2.5,6.2,6.2,6.2h62.3c3.7,0,6.2-2.5,6.2-6.2s-2.5-6.2-6.2-6.2Z"/>
                <path class="cls-13" d="M-1083.8-1519.3c8.7,0,15.6-6.9,15.6-15.6s-6.9-15.6-15.6-15.6-15.6,6.9-15.6,15.6,6.9,15.6,15.6,15.6ZM-1083.8-1538c1.9,0,3.1,1.2,3.1,3.1s-1.2,3.1-3.1,3.1-3.1-1.2-3.1-3.1,1.2-3.1,3.1-3.1Z"/>
                <path class="cls-13" d="M-1083.8-1494.4c-8.7,0-15.6,6.9-15.6,15.6s6.9,15.6,15.6,15.6,15.6-6.9,15.6-15.6-6.9-15.6-15.6-15.6ZM-1083.8-1475.7c-1.9,0-3.1-1.2-3.1-3.1s1.2-3.1,3.1-3.1,3.1,1.2,3.1,3.1-1.2,3.1-3.1,3.1Z"/>
              </g>
            </g>
          </g>
          <path class="cls-5" d="M335.6,379.2c-.2,4-3.6,7.1-7.6,7-3.9-.2-7.2-3.6-7-7.6.2-4.1,3.6-7.3,7.7-7.1,3.9.2,7.1,3.7,6.9,7.7Z"/>
          <path class="cls-5" d="M383.4,316.8v60.6h-45.1c-.2-.7-.5-1.4-.7-2.1-1.6-4-5.2-6.4-9.6-6.3-4.1,0-7.8,2.7-9,6.8-.5,1.4-1,1.9-2.4,1.8-2,0-4.1,0-6.3,0v-60.8h73.2Z"/>
          <path class="cls-5" d="M415.8,379c0,4-3.4,7.2-7.4,7.2s-7.2-3.4-7.2-7.3,3.4-7.4,7.5-7.3c4,0,7.1,3.4,7.1,7.4Z"/>
          <path class="cls-5" d="M414.7,353.7h-28.5v-16.8c0-1.2.4-1.8,1.7-1.8,4.3,0,8.7,0,13.1,0,.8,0,2,.5,2.4,1.2,3.7,5.6,7.3,11.3,11.2,17.2h0Z"/>
          <path class="cls-5" d="M428.5,375.7c0,1.3-.5,1.8-1.8,1.8-2.3,0-4.6,0-6.9,0-.6,0-1.5-.8-1.7-1.3-1.6-4.6-5-7.2-9.6-7.2s-8,2.6-9.6,7.2c-.2.5-1.1,1.2-1.7,1.2-3.1,0-6.2,0-9.4,0-.6,0-1.7-.8-1.7-1.2,0-6.5,0-13,0-19.8h2.6c8.7,0,17.4-.1,26.1,0,1.6,0,3.3.6,4.9,1.2,2.3.9,4.6,1.8,6.8,3,.8.5,1.8,1.7,1.8,2.6.2,4.1,0,8.2,0,12.3Z"/>
          <path class="cls-7" d="M362.3,252.9c-53,0-96,43-96,96s43,96,96,96,96-43,96-96-43-96-96-96ZM427,380.3c-2.2,0-4.4,0-6.7,0-1.4,0-2,.3-2.5,1.8-1.2,4.2-5,6.8-9.5,6.8-4.3,0-8.1-2.6-9.3-6.7-.5-1.5-1.1-1.9-2.6-1.9h-50.4c-2.1,0-4.3,0-6.5,0-1.1,0-1.5.4-1.9,1.4-1.5,4.7-5,7.2-9.6,7.2s-7.9-2.5-9.4-7.1c-.4-1.1-.9-1.5-2.1-1.4-2.4.1-4.9,0-7.3,0s-2.1-.5-2-2v-61c0-3.1,0-3.2,3.1-3.2h73.4c1.8,0,2.3.7,2.2,2.4,0,5.2,0,10.4,0,16h0c4.7,0,9.2,0,13.6,0,3,0,5.1,1.1,6.7,3.7,3.3,5.4,6.8,10.7,10.3,15.9.8,1.2,2.1,2.2,3.4,2.9,2.5,1.3,5.2,2.3,7.8,3.5,2.1.9,3.1,2.5,3.1,4.7v13.2c0,2.7-1.3,3.9-4,4Z"/>
          <path class="cls-10" d="M427.9,358.4c-2.6-1.2-5.3-2.2-7.8-3.5-1.3-.7-2.6-1.8-3.4-2.9-3.5-5.2-7-10.6-10.3-15.9-1.6-2.6-3.6-3.7-6.7-3.7-4.4,0-8.9,0-13.6,0h0c0-5.5,0-10.7,0-16,0-1.7-.5-2.4-2.2-2.4h-73.4c-3.1,0-3.1,0-3.1,3.2v61c0,1.5.6,2,2,2,2.4,0,4.8.1,7.3,0,1.1,0,1.7.3,2.1,1.4,1.5,4.6,4.9,7.1,9.4,7.1s8.1-2.5,9.6-7.2c.3-1,.8-1.4,1.9-1.4,2.2,0,4.3,0,6.5,0h50.4c1.5,0,2.1.4,2.6,1.9,1.2,4.1,5,6.7,9.3,6.7,4.4,0,8.2-2.5,9.5-6.8.5-1.4,1-1.8,2.5-1.8,2.2,0,4.4,0,6.7,0,2.7,0,4-1.3,4-4v-13.2c0-2.2-1-3.8-3.1-4.7ZM328,386.2c-3.9-.2-7.2-3.6-7-7.6.2-4.1,3.6-7.3,7.7-7.1,3.9.2,7.1,3.7,6.9,7.7-.2,4-3.6,7.1-7.6,7ZM383.4,377.4h-45.1c-.2-.7-.5-1.4-.7-2.1-1.6-4-5.2-6.4-9.6-6.3-4.1,0-7.8,2.7-9,6.8-.5,1.4-1,1.9-2.4,1.8-2,0-4.1,0-6.3,0v-60.8h73.2v60.6ZM386.2,336.9c0-1.2.4-1.8,1.7-1.8,4.3,0,8.7,0,13.1,0,.8,0,2,.5,2.4,1.2,3.7,5.6,7.3,11.3,11.2,17.2h0c0,.1-28.5.1-28.5.1v-16.8ZM408.5,386.2c-3.9,0-7.2-3.4-7.2-7.3s3.4-7.4,7.5-7.3c4,0,7.1,3.4,7.1,7.4,0,4-3.4,7.2-7.4,7.2ZM428.5,375.7c0,1.3-.5,1.8-1.8,1.8-2.3,0-4.6,0-6.9,0-.6,0-1.5-.8-1.7-1.3-1.6-4.6-5-7.2-9.6-7.2s-8,2.6-9.6,7.2c-.2.5-1.1,1.2-1.7,1.2-3.1,0-6.2,0-9.4,0-.6,0-1.7-.8-1.7-1.2,0-6.5,0-13,0-19.8h2.6c8.7,0,17.4-.1,26.1,0,1.6,0,3.3.6,4.9,1.2,2.3.9,4.6,1.8,6.8,3,.8.5,1.8,1.7,1.8,2.6.2,4.1,0,8.2,0,12.3Z"/>
          <g class="cls-12">
            <g class="cls-14">
              <g>
                <path class="cls-13" d="M2127.6-1615.3c-2.5-2.5-6.2-2.5-8.7,0l-16.8,16.8h-72.3c-1.9,0-3.1.6-4.4,1.9l-93.5,93.5c-2.5,2.5-2.5,6.2,0,8.7l74.8,74.8c2.5,2.5,6.2,2.5,8.7,0l93.5-93.5c1.2-1.2,1.9-2.5,1.9-4.4v-72.3l16.8-16.8c2.5-2.5,2.5-6.2,0-8.7ZM2098.4-1520l-87.2,87.2-66-66,87.2-87.2h57.3l-26.8,26.8c-2.5,2.5-2.5,6.2,0,8.7s6.2,2.5,8.7,0l26.8-26.8v57.3Z"/>
                <path class="cls-13" d="M2042.3-1505.1h-62.3c-3.7,0-6.2,2.5-6.2,6.2s2.5,6.2,6.2,6.2h62.3c3.7,0,6.2-2.5,6.2-6.2s-2.5-6.2-6.2-6.2Z"/>
                <path class="cls-13" d="M2011.2-1511.3c8.7,0,15.6-6.9,15.6-15.6s-6.9-15.6-15.6-15.6-15.6,6.9-15.6,15.6,6.9,15.6,15.6,15.6ZM2011.2-1530c1.9,0,3.1,1.2,3.1,3.1s-1.2,3.1-3.1,3.1-3.1-1.2-3.1-3.1,1.2-3.1,3.1-3.1Z"/>
                <path class="cls-13" d="M2011.2-1486.4c-8.7,0-15.6,6.9-15.6,15.6s6.9,15.6,15.6,15.6,15.6-6.9,15.6-15.6-6.9-15.6-15.6-15.6ZM2011.2-1467.7c-1.9,0-3.1-1.2-3.1-3.1s1.2-3.1,3.1-3.1,3.1,1.2,3.1,3.1-1.2,3.1-3.1,3.1Z"/>
              </g>
            </g>
          </g>
          <circle class="cls-5" cx="3457.2" cy="356.9" r="96"/>
        </g>
        <rect class="cls-6" x="369.4" y="280.3" width="96" height="110"/>
        <rect class="cls-6" x="369.4" y="280.3" width="96" height="110"/>
      </g>
      <path class="cls-11" d="M3481.1,340.4c4.7,0,9.2,0,13.6,0,3,0,5.1,1.1,6.7,3.7,3.3,5.4,6.8,10.7,10.3,16,.8,1.2,2.1,2.2,3.4,2.9,2.5,1.3,5.2,2.3,7.8,3.5,2.1.9,3.1,2.5,3.1,4.7v13.2c0,2.7-1.3,3.9-4,4-2.2,0-4.4,0-6.7,0-1.4,0-2,.3-2.4,1.8-1.2,4.2-5,6.8-9.5,6.8-4.3,0-8.1-2.6-9.3-6.7-.4-1.5-1.1-1.9-2.6-1.9h-50.4c-2.1,0-4.3,0-6.5,0-1.1,0-1.5.3-1.9,1.4-1.5,4.7-5,7.2-9.6,7.2s-7.9-2.5-9.4-7.1c-.4-1.1-.9-1.5-2.1-1.4-2.4,0-4.9,0-7.3,0s-2.1-.5-2-2v-61.1c0-3.1,0-3.2,3.1-3.2h73.4c1.8,0,2.3.7,2.2,2.4,0,5.2,0,10.4,0,16h0ZM3405.1,324.8v60.8c2.2,0,4.3,0,6.3,0,1.4,0,2-.4,2.4-1.8,1.2-4.1,4.9-6.7,9-6.8,4.4,0,8,2.3,9.6,6.3.2.7.4,1.4.7,2.1h45.1v-60.6s-73.2,0-73.2,0ZM3481.1,364.4c0,6.8,0,13.4,0,19.9,0,.4,1,1.2,1.6,1.2,3.1,0,6.2,0,9.4,0,.6,0,1.5-.7,1.7-1.2,1.6-4.6,5-7.2,9.6-7.2s8,2.6,9.6,7.2c.2.5,1,1.2,1.6,1.3,2.3.1,4.6,0,6.9,0,1.3,0,1.9-.5,1.8-1.8,0-4.1,0-8.2,0-12.3,0-.9-.9-2.2-1.8-2.6-2.2-1.2-4.5-2.1-6.8-3-1.6-.6-3.3-1.2-4.9-1.2-8.7-.1-17.4,0-26.1,0h-2.6ZM3509.6,361.6c-3.9-6-7.5-11.7-11.2-17.2-.4-.7-1.6-1.2-2.4-1.2-4.4,0-8.8,0-13.1,0-1.3,0-1.7.5-1.7,1.8v16.8h28.5,0ZM3510.8,387c0-4-3.1-7.4-7.1-7.4-4.1,0-7.5,3.2-7.5,7.3s3.3,7.3,7.2,7.3,7.3-3.2,7.4-7.2ZM3423,394.2c4,.1,7.4-3,7.6-7,.2-4-2.9-7.5-6.9-7.7-4.1-.2-7.6,3-7.7,7.1-.1,3.9,3.1,7.4,7,7.6h0Z"/>
      <g id="Warstwa_1-3" data-name="Warstwa_1">
        <path class="cls-2" d="M331.8,2.8c190.5,0,345,154.5,345,345s-154.5,345-345,345S-13.2,538.3-13.2,347.7,141.2,2.8,331.8,2.8Z"/>
        <path class="cls-3" d="M417.6,288.2c17,0,33,.4,48.9,0,10.9-.2,18.3,3.9,24,13.3,12,19.4,24.4,38.5,37.1,57.4,2.9,4.3,7.5,8.1,12.2,10.6,9,4.7,18.6,8.4,28,12.5,7.5,3.2,11.1,9,11.1,17v47.3c0,9.7-4.7,14.2-14.3,14.3-8.1,0-16,.4-24,0-5-.2-7.2,1.3-8.8,6.5-4.5,15.2-18.1,24.6-34.1,24.4-15.4,0-29-9.3-33.3-24.2-1.6-5.6-4.1-6.8-9.3-6.8h-181.2c-7.7,0-15.4.2-23.3,0-3.9,0-5.6,1.3-6.8,5-5.6,16.8-18.1,25.8-34.6,25.8s-28.5-9.1-33.9-25.6c-1.4-4.1-3.4-5.4-7.5-5.2-8.8.4-17.6,0-26.2,0s-7.5-2-7.3-7.2v-219.5c0-11.1.2-11.5,11.3-11.5h263.8c6.5,0,8.2,2.7,8.1,8.6-.2,18.8,0,37.5,0,57.4h.2ZM144.7,232.3v218.5c7.9,0,15.4-.4,22.8,0,5.2.4,7.2-1.6,8.8-6.5,4.5-14.7,17.6-24,32.4-24.4,15.8-.4,28.9,8.2,34.6,22.8.9,2.5,1.6,5,2.5,7.5h162.2v-217.9s-263.3,0-263.3,0ZM417.6,374.6c0,24.6,0,48,.2,71.5,0,1.6,3.8,4.3,5.9,4.3,11.3.4,22.4.4,33.7,0,2.2,0,5.4-2.5,6.1-4.5,5.9-16.7,18.1-26,34.6-26s28.7,9.3,34.6,25.8c.7,2,3.8,4.5,5.9,4.7,8.2.5,16.5,0,24.7.4,4.8,0,6.8-1.8,6.6-6.6,0-14.7.4-29.6-.4-44.3,0-3.4-3.4-7.9-6.5-9.5-7.9-4.3-16.1-7.7-24.6-10.9-5.7-2.2-11.8-4.5-17.7-4.5-31.2-.5-62.5-.2-93.7-.2h-9.5v-.2ZM520.1,364.8c-14-21.5-26.9-41.9-40.3-62-1.6-2.5-5.7-4.3-8.8-4.3-15.8-.4-31.5,0-47.1-.2-4.7,0-6.3,2-6.1,6.5v60.4h102.5l-.2-.4ZM524.4,456c0-14.5-11.3-26.5-25.6-26.7-14.7-.4-26.9,11.6-26.9,26.3s11.8,26.3,26,26.3,26.3-11.6,26.5-26ZM208.7,482c14.3.5,26.5-10.8,27.2-25.1.7-14.3-10.6-26.9-24.7-27.6-14.7-.7-27.2,10.8-27.8,25.4-.5,14.2,11.1,26.7,25.3,27.2h0Z"/>
      </g>
      <circle class="cls-1" cx="346.6" cy="347.8" r="322.2"/>
    </g>
  </g>
</svg>