<?xml version="1.0" encoding="UTF-8"?>
<svg xmlns="http://www.w3.org/2000/svg" xmlns:xlink="http://www.w3.org/1999/xlink" version="1.1" viewBox="0 0 41.02 41.11">
  <defs>
    <style>
      .cls-1 {
        fill: none;
      }

      .cls-2 {
        fill: #fff;
        stroke: #4079bd;
        stroke-width: 2px;
      }

      .cls-3 {
        fill: #46ac34;
        stroke: #507abd;
        stroke-width: 1.5px;
      }

      .cls-4 {
        fill: #517bbd;
      }

      .cls-5 {
        clip-path: url(#clippath-1);
      }

      .cls-6 {
        clip-path: url(#clippath);
      }
    </style>
    <clipPath id="clippath">
      <rect class="cls-1" x="-285.9" y="-375.47" width="40" height="40"/>
    </clipPath>
    <clipPath id="clippath-1">
      <rect class="cls-1" x="335.03" y="-373.87" width="40" height="40"/>
    </clipPath>
  </defs>
  <!-- Generator: Adobe Illustrator 28.6.0, SVG Export Plug-In . SVG Version: 1.2.0 Build 709)  -->
  <g>
    <g id="Warstwa_1">
      <g class="cls-6">
        <g>
          <path class="cls-4" d="M-246.27-375.1c-.5-.5-1.25-.5-1.75,0l-3.38,3.38h-14.5c-.38,0-.62.12-.88.38l-18.75,18.75c-.5.5-.5,1.25,0,1.75l15,15c.5.5,1.25.5,1.75,0l18.75-18.75c.25-.25.38-.5.38-.88v-14.5l3.38-3.38c.5-.5.5-1.25,0-1.75ZM-252.15-355.97l-17.5,17.5-13.25-13.25,17.5-17.5h11.5l-5.38,5.38c-.5.5-.5,1.25,0,1.75s1.25.5,1.75,0l5.38-5.38v11.5Z"/>
          <path class="cls-4" d="M-263.4-352.97h-12.5c-.75,0-1.25.5-1.25,1.25s.5,1.25,1.25,1.25h12.5c.75,0,1.25-.5,1.25-1.25s-.5-1.25-1.25-1.25Z"/>
          <path class="cls-4" d="M-269.65-354.22c1.75,0,3.12-1.38,3.12-3.12s-1.38-3.12-3.12-3.12-3.12,1.38-3.12,3.12,1.38,3.12,3.12,3.12ZM-269.65-357.97c.38,0,.62.25.62.62s-.25.62-.62.62-.62-.25-.62-.62.25-.62.62-.62Z"/>
          <path class="cls-4" d="M-269.65-349.22c-1.75,0-3.12,1.38-3.12,3.12s1.38,3.12,3.12,3.12,3.12-1.38,3.12-3.12-1.38-3.12-3.12-3.12ZM-269.65-345.47c-.38,0-.62-.25-.62-.62s.25-.62.62-.62.62.25.62.62-.25.62-.62.62Z"/>
        </g>
      </g>
      <circle class="cls-2" cx="20.47" cy="20.58" r="19.25"/>
      <path class="cls-3" d="M25.26,17.26c.95,0,1.84.02,2.73,0,.61-.01,1.02.22,1.34.74.67,1.08,1.36,2.15,2.07,3.2.16.24.42.45.68.59.5.26,1.04.47,1.56.7.42.18.62.5.62.95,0,.88,0,1.76,0,2.64,0,.54-.26.79-.8.8-.45,0-.89.02-1.34,0-.28-.01-.4.07-.49.36-.25.85-1.01,1.37-1.9,1.36-.86,0-1.62-.52-1.86-1.35-.09-.31-.23-.38-.52-.38-3.37,0-6.74,0-10.11,0-.43,0-.86.01-1.3,0-.22,0-.31.07-.38.28-.31.94-1.01,1.44-1.93,1.44-.91,0-1.59-.51-1.89-1.43-.08-.23-.19-.3-.42-.29-.49.02-.98,0-1.46,0-.28,0-.42-.11-.41-.4,0-.2,0-.39,0-.59,0-3.89,0-7.77,0-11.66,0-.62.01-.64.63-.64,4.91,0,9.81,0,14.72,0,.36,0,.46.15.45.48-.01,1.05,0,2.09,0,3.2h0ZM10.03,14.14v12.19c.44,0,.86-.02,1.27,0,.29.02.4-.09.49-.36.25-.82.98-1.34,1.81-1.36.88-.02,1.61.46,1.93,1.27.05.14.09.28.14.42h9.05v-12.16h-14.69ZM25.26,22.08c0,1.37,0,2.68.01,3.99,0,.09.21.24.33.24.63.02,1.25.02,1.88,0,.12,0,.3-.14.34-.25.33-.93,1.01-1.45,1.93-1.45.92,0,1.6.52,1.93,1.44.04.11.21.25.33.26.46.03.92,0,1.38.02.27,0,.38-.1.37-.37,0-.82.02-1.65-.02-2.47,0-.19-.19-.44-.36-.53-.44-.24-.9-.43-1.37-.61-.32-.12-.66-.25-.99-.25-1.74-.03-3.49-.01-5.23-.01h-.53ZM30.98,21.53c-.78-1.2-1.5-2.34-2.25-3.46-.09-.14-.32-.24-.49-.24-.88-.02-1.76,0-2.63-.01-.26,0-.35.11-.34.36,0,.38,0,.76,0,1.13v2.24h5.72ZM31.22,26.62c0-.81-.63-1.48-1.43-1.49-.82-.02-1.5.65-1.5,1.47,0,.79.66,1.47,1.45,1.47.8,0,1.47-.65,1.48-1.45ZM13.6,28.07c.8.03,1.48-.6,1.52-1.4.04-.8-.59-1.5-1.38-1.54-.82-.04-1.52.6-1.55,1.42-.03.79.62,1.49,1.41,1.52h0Z"/>
      <g class="cls-5">
        <g>
          <path class="cls-4" d="M374.65-373.49c-.5-.5-1.25-.5-1.75,0l-3.38,3.38h-14.5c-.38,0-.62.12-.88.38l-18.75,18.75c-.5.5-.5,1.25,0,1.75l15,15c.5.5,1.25.5,1.75,0l18.75-18.75c.25-.25.38-.5.38-.88v-14.5l3.38-3.38c.5-.5.5-1.25,0-1.75ZM368.78-354.37l-17.5,17.5-13.25-13.25,17.5-17.5h11.5l-5.38,5.38c-.5.5-.5,1.25,0,1.75s1.25.5,1.75,0l5.38-5.38v11.5Z"/>
          <path class="cls-4" d="M357.53-351.37h-12.5c-.75,0-1.25.5-1.25,1.25s.5,1.25,1.25,1.25h12.5c.75,0,1.25-.5,1.25-1.25s-.5-1.25-1.25-1.25Z"/>
          <path class="cls-4" d="M351.28-352.62c1.75,0,3.12-1.38,3.12-3.12s-1.38-3.12-3.12-3.12-3.12,1.38-3.12,3.12,1.38,3.12,3.12,3.12ZM351.28-356.37c.38,0,.62.25.62.62s-.25.62-.62.62-.62-.25-.62-.62.25-.62.62-.62Z"/>
          <path class="cls-4" d="M351.28-347.62c-1.75,0-3.12,1.38-3.12,3.12s1.38,3.12,3.12,3.12,3.12-1.38,3.12-3.12-1.38-3.12-3.12-3.12ZM351.28-343.87c-.38,0-.62-.25-.62-.62s.25-.62.62-.62.62.25.62.62-.25.62-.62.62Z"/>
        </g>
      </g>
      <circle class="cls-2" cx="641.39" cy="22.19" r="19.25"/>
      <path class="cls-3" d="M646.19,18.87c.95,0,1.84.02,2.73,0,.61-.01,1.02.22,1.34.74.67,1.08,1.36,2.15,2.07,3.2.16.24.42.45.68.59.5.26,1.04.47,1.56.7.42.18.62.5.62.95,0,.88,0,1.76,0,2.64,0,.54-.26.79-.8.8-.45,0-.89.02-1.34,0-.28-.01-.4.07-.49.36-.25.85-1.01,1.37-1.9,1.36-.86,0-1.62-.52-1.86-1.35-.09-.31-.23-.38-.52-.38-3.37,0-6.74,0-10.11,0-.43,0-.86.01-1.3,0-.22,0-.31.07-.38.28-.31.94-1.01,1.44-1.93,1.44-.91,0-1.59-.51-1.89-1.43-.08-.23-.19-.3-.42-.29-.49.02-.98,0-1.46,0-.28,0-.42-.11-.41-.4,0-.2,0-.39,0-.59,0-3.89,0-7.77,0-11.66,0-.62.01-.64.63-.64,4.91,0,9.81,0,14.72,0,.36,0,.46.15.45.48-.01,1.05,0,2.09,0,3.2h0ZM630.95,15.75v12.19c.44,0,.86-.02,1.27,0,.29.02.4-.09.49-.36.25-.82.98-1.34,1.81-1.36.88-.02,1.61.46,1.93,1.27.05.14.09.28.14.42h9.05v-12.16h-14.69ZM646.19,23.69c0,1.37,0,2.68.01,3.99,0,.09.21.24.33.24.63.02,1.25.02,1.88,0,.12,0,.3-.14.34-.25.33-.93,1.01-1.45,1.93-1.45.92,0,1.6.52,1.93,1.44.04.11.21.25.33.26.46.03.92,0,1.38.02.27,0,.38-.1.37-.37,0-.82.02-1.65-.02-2.47,0-.19-.19-.44-.36-.53-.44-.24-.9-.43-1.37-.61-.32-.12-.66-.25-.99-.25-1.74-.03-3.49-.01-5.23-.01h-.53ZM651.91,23.13c-.78-1.2-1.5-2.34-2.25-3.46-.09-.14-.32-.24-.49-.24-.88-.02-1.76,0-2.63-.01-.26,0-.35.11-.34.36,0,.38,0,.76,0,1.13v2.24h5.72ZM652.15,28.22c0-.81-.63-1.48-1.43-1.49-.82-.02-1.5.65-1.5,1.47,0,.79.66,1.47,1.45,1.47.8,0,1.47-.65,1.48-1.45ZM634.53,29.67c.8.03,1.48-.6,1.52-1.4.04-.8-.59-1.5-1.38-1.54-.82-.04-1.52.6-1.55,1.42-.03.79.62,1.49,1.41,1.52h0Z"/>
    </g>
  </g>
</svg>