<?xml version="1.0" encoding="UTF-8"?>
<svg width="111px" height="26px" viewBox="0 0 111 26" version="1.1" xmlns="http://www.w3.org/2000/svg" xmlns:xlink="http://www.w3.org/1999/xlink">
    <!-- Generator: Sketch 51.1 (57501) - http://www.bohemiancoding.com/sketch -->
    <title>finiata-logo-white</title>
    <desc>Created with Sketch.</desc>
    <defs></defs>
    <g id="Page-1" stroke="none" stroke-width="1" fill="none" fill-rule="evenodd">
        <g id="finiata-logo-white" fill-rule="nonzero">
            <path d="M92.8,11 C96.12,11 98.47,13.64 98.47,17.11 C98.47,20.58 96.11,23.24 92.8,23.24 C89.49,23.24 87.09,20.51 87.09,17.11 C87.09,13.71 89.38,11 92.8,11 Z M100.8,8.9 L98.32,8.9 L98.32,11.35 C96.9479236,9.53152577 94.7767816,8.49445108 92.5,8.57 C88.02,8.57 84.5,12.18 84.5,17.11 C84.5,22.04 87.98,25.67 92.5,25.67 C94.7767816,25.7455489 96.9479236,24.7084742 98.32,22.89 L98.32,25.34 L100.83,25.34 L100.8,8.9 Z M81.55,8.9 L74.69,8.9 L74.69,3.66 L72.18,3.66 L72.18,8.89 L68.7,8.89 L68.7,11.23 L72.18,11.23 L72.18,19.59 C72.18,23.72 74.18,25.67 77.65,25.67 C79.3709158,25.6686702 81.0397372,25.0794668 82.38,24 L81.2,22 C80.2356904,22.7341705 79.061827,23.1406426 77.85,23.16 C76,23.16 74.69,22.03 74.69,19.46 L74.69,11.16 L81.57,11.16 L81.57,8.89 L81.55,8.9 Z M56.83,11 C60.15,11 62.5,13.64 62.5,17.11 C62.5,20.58 60.14,23.24 56.83,23.24 C53.52,23.24 51.12,20.51 51.12,17.11 C51.12,13.71 53.41,11 56.83,11 Z M64.83,8.9 L62.35,8.9 L62.35,11.35 C60.9779236,9.53152577 58.8067816,8.49445108 56.53,8.57 C52.05,8.57 48.53,12.18 48.53,17.11 C48.53,22.04 52.01,25.67 56.53,25.67 C58.8067816,25.7455489 60.9779236,24.7084742 62.35,22.89 L62.35,25.34 L64.86,25.34 L64.83,8.9 Z M43.83,8.9 L41.37,8.9 L41.37,25.34 L43.89,25.34 L43.83,8.9 Z M29,8.56 C26.8712086,8.47322382 24.8456946,9.48032296 23.63,11.23 L23.63,8.89 L21.15,8.89 L21.15,25.34 L23.67,25.34 L23.67,16.06 C23.6057056,14.7362248 24.0950668,13.4453777 25.0207699,12.4969114 C25.946473,11.5484451 27.2250537,11.0278763 28.55,11.06 C31.46,11.06 33.15,12.9 33.15,16.06 L33.15,25.4 L35.66,25.4 L35.66,15.14 C35.7552881,13.3532127 35.0814113,11.6110558 33.8085448,10.353479 C32.5356783,9.09590212 30.7855054,8.44312703 29,8.56 Z M15.25,8.89 L12.74,8.89 L12.74,25.34 L15.26,25.34 L15.25,8.89 Z M8.86,8.89 L2.52,8.89 L2.52,6.08 C2.52,3.79 3.41,2.43 5.47,2.43 C6.63226414,2.46899934 7.76366903,2.81393986 8.75,3.43 L9.66,1.26 C8.35876957,0.427923462 6.84449284,-0.00968862068 5.3,-4.4408921e-16 C1.53,-4.4408921e-16 0,2.57 0,6.08 L0,25.34 L2.52,25.34 L2.52,11.23 L8.87,11.23 L8.86,8.89 Z" id="Shape" fill="#313896"></path>
            <path d="M110.79,3.27 L109.07,2.1 C108.275931,3.56899628 106.918644,4.65193785 105.31,5.1 C104.369883,5.26639011 103.401153,5.12248461 102.55,4.69 L101.78,6.69 C102.645771,7.10233094 103.591099,7.3207462 104.55,7.33 C104.922644,7.32846967 105.294304,7.29163844 105.66,7.22 C107.61,6.86 109.34,5.53 110.79,3.27 Z" id="Shape" fill="#25D7FD"></path>
        </g>
    </g>
</svg>