<svg width="502" height="401" viewBox="0 0 502 401" fill="none" xmlns="http://www.w3.org/2000/svg">
<path d="M72.932 210.013C75.9497 218.871 75.4085 229.552 69.1299 236.494C65.8553 240.113 61.4298 242.353 57.2201 244.884C56.0486 245.588 54.8943 246.313 53.7845 247.103C52.822 247.784 51.9041 248.506 51.0237 249.265C37.1615 261.225 33.5409 282.327 36.8327 300.614C39.0009 312.667 43.5942 323.922 49.9996 334.155C58.1381 347.165 69.1985 358.54 81.9098 367.836C87.9007 372.217 94.2614 376.144 100.855 379.56C106.045 382.248 111.378 384.622 116.793 386.664C155.146 401.11 197.233 401.459 238.207 400.067C281.831 398.593 325.525 395.337 368.324 386.787C373.856 385.682 379.477 384.41 385.057 382.898C405.17 377.443 424.725 368.883 437.567 353.889C439.368 351.786 441.04 349.556 442.557 347.189C443.284 346.064 443.972 344.908 444.63 343.718C446.421 340.462 447.863 337.076 448.973 333.598C456.077 311.398 449.792 285.484 436.012 266.17C430.904 259.009 424.701 252.128 419.659 244.846C414.579 237.507 410.681 229.76 410.27 220.912C409.489 204.065 421.721 189.885 430.106 175.244C449.384 141.59 448.877 96.3867 428.02 63.4854C407.849 31.6615 360.877 18.0666 325.247 23.0736C292.635 27.6531 259.375 46.1285 228.664 34.247C217.042 29.7496 207.441 21.3123 196.613 15.1458C177.459 4.23915 154.913 0.726711 132.868 0.3334C108.631 -0.0941114 83.8793 3.16182 62.0943 13.7744C40.3094 24.3869 21.7305 43.0333 14.9004 66.2591C8.65265 87.5116 12.6294 110.748 21.6072 131.005C30.5883 151.262 44.2622 169.036 58.0833 186.363C63.92 193.678 69.9178 201.154 72.9355 210.013H72.932Z" fill="#F2F5FB"/>
<path d="M420.426 223.311C419.398 213.203 423.428 204.516 429.428 203.907C435.428 203.298 441.126 210.999 442.154 221.108C443.182 231.216 439.152 239.903 433.152 240.512C427.152 241.121 421.455 233.42 420.426 223.311Z" fill="#F7F5F5"/>
<path d="M255.927 28.8242C243.371 27.4888 233.711 21.5399 234.351 15.5371C234.992 9.5342 245.69 5.75049 258.246 7.08591C270.802 8.42133 280.462 14.3702 279.822 20.373C279.182 26.3759 268.483 30.1596 255.927 28.8242Z" fill="#F7F5F5"/>
<path d="M34.335 215.846C33.1782 204.475 38.8819 194.583 47.0745 193.752C55.2671 192.921 62.8463 201.466 64.0031 212.837C65.1599 224.208 59.4562 234.099 51.2636 234.93C43.071 235.761 35.4918 227.217 34.335 215.846Z" fill="#F7F5F5"/>
<path opacity="0.54" d="M0 135.693V296.887C0 331.007 27.6968 358.662 61.8656 358.662H334.628C345.463 358.662 355.647 355.883 364.501 350.999C383.572 340.476 396.493 320.188 396.493 296.887V292.896L429.805 297.634C431.31 297.848 432.254 296.056 431.22 294.942L396.493 257.445V135.693C396.493 101.573 368.797 73.918 334.628 73.918H61.8619C41.3598 73.918 23.1912 83.8729 11.9327 99.2091C4.427 109.43 0 122.043 0 135.693Z" fill="#C8DBF9"/>
<path d="M0.000213623 135.691V296.884C0.000213623 331.005 27.6971 358.66 61.8659 358.66H334.628C345.463 358.66 355.647 355.881 364.501 350.997L11.9329 99.207C4.42722 109.427 0.000213623 122.041 0.000213623 135.691Z" fill="#B2CDFA"/>
<path d="M126.331 291.104L137.919 358.5H187.766L174.398 287.031L126.331 291.104Z" fill="#4C2359"/>
<path d="M170.143 187.644C170.143 187.644 80.1727 188.175 73.0154 198.291C65.858 208.411 77.5959 297.68 87.5735 302.986C97.5511 308.293 204.241 311.247 207.848 292.956C211.455 274.67 206.522 190.58 170.143 187.641V187.644Z" fill="white"/>
<path d="M170.143 187.644C170.143 187.644 80.1727 188.175 73.0154 198.291C65.858 208.411 77.5959 297.68 87.5735 302.986C97.5511 308.293 204.241 311.247 207.848 292.956C211.455 274.67 206.522 190.58 170.143 187.641V187.644Z" fill="#CD7B31"/>
<path d="M180.417 185.527C180.417 185.527 90.4462 186.07 83.2888 196.455C76.1315 206.84 87.8694 298.457 97.847 303.902C107.825 309.347 214.514 312.38 218.121 293.61C221.728 274.841 216.795 188.541 180.417 185.527Z" fill="#F59D4E"/>
<path d="M364.999 182.545C364.999 182.545 371.654 174.973 373.782 172.314C375.909 169.655 384.385 157.389 389.175 154.554C393.965 151.719 402.572 149.771 402.748 151.278C402.924 152.785 402.306 153.492 398.932 155.796C395.561 158.099 391.924 163.589 391.924 163.589C391.924 163.589 408.336 156.147 411.531 154.023C414.726 151.899 425.28 141.798 426.524 142.064C427.767 142.329 429.805 142.685 429.453 145.254C429.097 147.823 427.235 150.212 427.235 150.212C427.235 150.212 432.913 144.719 434.954 145.519C436.996 146.316 437.969 147.733 437.617 149.33C437.262 150.923 433.269 155.53 433.269 155.53C433.269 155.53 440.101 151.368 441.164 152.785C442.228 154.203 443.116 155.885 441.52 158.455C439.925 161.024 433.891 166.427 433.891 166.427C433.891 166.427 437.527 167.669 436.996 170.238C436.464 172.807 422.977 183.615 422.445 183.88C421.913 184.146 411.801 190.436 401.153 192.295C390.508 194.153 384.83 195.305 384.83 195.305L374.272 200.885L365.003 182.549L364.999 182.545Z" fill="url(#paint0_linear_4332_3)"/>
<path d="M250.642 97.952C251.223 92.5108 249.725 87.4286 246.897 83.7974C244.039 77.8701 238.904 73.6817 232.687 73.0198C222.23 71.9091 212.665 81.1947 211.327 93.7598C209.987 106.325 217.38 117.413 227.837 118.527C234.024 119.186 239.901 116.201 243.946 111.048C247.504 108.094 250.062 103.419 250.642 97.952Z" fill="url(#paint1_linear_4332_3)"/>
<path d="M141.132 92.8856C135.731 90.638 131.559 85.9411 129.967 80.3241C128.375 74.6997 129.473 68.5181 132.896 63.7837C136.881 58.2677 143.207 55.4667 149.327 52.7555C150.488 52.2394 151.645 51.7308 152.78 51.1998C158.926 48.3352 166.398 43.369 167.102 35.957L169.559 36.1926C168.743 44.7601 160.552 50.2985 153.825 53.4324C152.675 53.9671 151.507 54.4869 150.33 55.0068C144.514 57.5834 138.495 60.2497 134.9 65.2235C131.96 69.2922 130.978 74.8194 132.345 79.651C133.712 84.4826 137.443 88.6785 142.083 90.6119L141.136 92.8856H141.132Z" fill="#4C2359"/>
<path d="M240.481 133.167C239.814 133.133 239.148 133.051 238.485 132.924C232.672 131.802 227.578 127.337 225.2 121.271L227.5 120.374C229.541 125.579 234.039 129.558 238.957 130.504C244.223 131.518 249.931 128.784 251.949 124.274C252.841 122.285 253.062 120.037 253.155 118.306C253.418 113.433 252.777 109.035 251.245 105.224C250.474 103.306 249.474 101.515 248.418 99.6185C247.758 98.4406 247.103 97.2588 246.5 96.0509C242.088 87.173 240.934 76.5637 243.328 66.9453L245.721 67.5399C243.466 76.6011 244.556 86.5934 248.71 94.959C249.294 96.1332 249.931 97.2775 250.571 98.4219C251.62 100.299 252.706 102.244 253.534 104.312C255.2 108.455 255.901 113.212 255.62 118.444C255.515 120.392 255.257 122.928 254.2 125.284C251.949 130.314 246.283 133.474 240.481 133.174V133.167Z" fill="#4C2359"/>
<path d="M65.4761 138.241C65.4761 138.241 118.608 155.825 103.596 121.106C92.922 96.4283 124.417 94.2107 143.525 94.9923C144.121 95.0147 144.705 95.0446 145.282 95.0708C146.158 95.1157 147.001 95.1755 147.814 95.2316C153.143 95.5831 156.799 96.0917 157.024 96.1254H157.035C157.035 96.1254 157.035 96.1254 157.035 96.1366L157.042 96.1478C157.084 96.4806 157.93 101.75 161.863 112.449C162.087 113.085 162.331 113.732 162.593 114.405C162.593 114.416 162.6 114.416 162.6 114.427C164.181 118.563 162.63 129.169 158.271 140.967C157.439 143.219 156.503 145.519 155.466 147.822C155.125 148.578 154.784 149.333 154.421 150.085C144.421 171.06 126.226 191.651 101.626 184.325C59.3 171.703 65.4799 138.237 65.4799 138.237L65.4761 138.241ZM111.48 126.749C112.405 126.499 114.682 103.717 134.919 97.7559C134.919 97.7559 109.005 97.0453 105.645 107.292C102.319 117.554 110.544 127.019 111.48 126.749Z" fill="#4C2359"/>
<path d="M241.152 101.728C241.152 101.728 264.732 61.4295 256.313 41.2467C247.893 21.0638 226.421 22.0025 226.421 22.0025C226.421 22.0025 186.005 -1.90505 157.777 25.8281C129.548 53.5613 141.675 88.856 147.668 100.322C153.66 111.787 173.043 119.936 173.043 119.936L241.148 101.728H241.152Z" fill="#4C2359"/>
<path d="M155.177 91.784C155.129 93.2873 155.87 94.7607 157.02 96.1294C157.025 96.1444 157.031 96.1519 157.039 96.1519C158.788 98.2461 161.462 100.101 163.672 101.406C165.829 102.651 167.526 103.437 167.526 103.437C167.526 103.437 167.526 103.455 167.541 103.482C167.623 103.747 168.054 105.086 168.675 106.993C168.732 107.161 168.788 107.337 168.844 107.524C169.323 108.998 169.904 110.77 170.526 112.625C170.687 113.07 170.837 113.526 170.983 113.99C171.192 114.592 171.398 115.213 171.608 115.822C171.78 116.324 171.953 116.821 172.125 117.322C172.159 117.434 172.196 117.531 172.23 117.644C172.507 118.421 172.784 119.192 173.031 119.936H173.043C173.159 120.273 173.282 120.605 173.398 120.938C173.41 120.994 173.443 121.062 173.462 121.125C173.563 121.406 173.668 121.671 173.754 121.929C174.335 123.504 174.863 124.88 175.297 125.86C176.822 129.315 195.144 134.494 209.429 137.284C212.316 137.856 215.032 138.309 217.417 138.657C217.417 138.657 217.522 138.664 217.717 138.683C226.309 139.363 225.99 133.096 229.137 127.565C229.53 126.869 229.987 126.189 230.515 125.527C230.541 125.501 230.567 125.471 230.582 125.433C235.552 119.203 240.822 102.812 241.144 101.773L241.152 101.72C241.534 99.5213 241.762 97.5617 241.796 95.9612C242.039 84.5927 238.088 79.4806 241.815 72.8539C242.088 72.3827 242.316 71.8741 242.511 71.3244C242.968 70.0417 243.212 68.587 243.301 67.0799C243.459 64.709 243.238 62.1847 242.886 59.9036C235.979 66.8032 218.878 56.3359 218.878 56.3359C218.391 57.0764 217.886 57.8168 217.32 58.5797C217.32 58.5797 196.766 87.2403 177.743 86.2493C176.387 86.182 175.031 85.9651 173.717 85.5687C173.361 85.5014 173.009 85.3929 172.649 85.1985H172.619C172.619 85.1985 172.608 85.191 172.601 85.191C172.582 85.191 172.571 85.176 172.563 85.1648C172.529 85.1686 172.537 85.1386 172.514 85.1461C171.548 84.6674 170.597 83.8335 169.619 82.85C169.612 82.8275 169.616 82.8163 169.604 82.8163C169.586 82.8014 169.578 82.7901 169.559 82.7789C169.29 82.4947 169.009 82.1993 168.732 81.9001C167.863 80.954 166.983 79.9405 166.076 79.0206C165.469 78.3998 164.848 77.8164 164.215 77.3078C163.784 76.9675 163.342 76.6534 162.896 76.4066C162.687 76.2794 162.481 76.171 162.263 76.0738H162.252C161.215 75.5913 160.114 75.4193 158.96 75.7297C152.806 77.3041 155.402 85.7856 155.181 91.7915L155.177 91.784Z" fill="url(#paint2_linear_4332_3)"/>
<path d="M230.522 89.5705C230.388 92.1845 231.421 94.3647 232.833 94.4358C234.245 94.5106 235.5 92.45 235.639 89.836C235.773 87.222 234.74 85.0418 233.328 84.9707C231.916 84.8959 230.661 86.9565 230.522 89.5705Z" fill="#152E51"/>
<path d="M238.302 81.0466C238.541 81.2149 236.41 77.6697 234.834 77.2509C233.257 76.8283 231.676 76.5217 231.152 77.5127C230.631 78.5037 230.092 79.8313 231.028 79.8799C231.965 79.9285 236.032 79.461 238.302 81.0504V81.0466Z" fill="#152E51"/>
<path d="M230.145 86.4099C230.1 87.2924 230.658 88.0404 231.392 88.0815C232.126 88.1189 232.763 87.4345 232.808 86.552C232.852 85.6694 232.294 84.9215 231.56 84.8804C230.826 84.843 230.19 85.5273 230.145 86.4099Z" fill="white"/>
<path d="M201.62 87.3757C201.283 89.8439 202.309 92.0203 203.916 92.241C205.522 92.4616 207.095 90.6367 207.433 88.1685C207.77 85.7003 206.743 83.5239 205.137 83.3032C203.53 83.0826 201.957 84.9075 201.62 87.3757Z" fill="#152E51"/>
<path d="M208.062 76.3195C208.062 76.3195 208.38 78.2977 207.93 78.8138C207.485 79.3299 205.395 78.466 203.009 79.6328C200.623 80.7995 198.533 81.6559 198.533 81.6559C198.533 81.6559 199.863 78.7128 201.462 77.0786C203.061 75.4406 207.975 74.5618 208.065 76.3232L208.062 76.3195Z" fill="#152E51"/>
<path d="M201.301 84.852C201.256 85.6934 201.904 86.4114 202.747 86.4563C203.59 86.5011 204.309 85.8542 204.354 85.0128C204.399 84.1713 203.751 83.4533 202.908 83.4085C202.065 83.3636 201.346 84.0105 201.301 84.852Z" fill="white"/>
<path d="M162.245 76.0703C164.923 77.2782 167.29 80.4494 169.593 82.8054C167.683 81.2123 165.043 78.9012 162.245 76.0703Z" fill="url(#paint3_linear_4332_3)"/>
<path d="M172.646 85.2015C172.616 85.2015 172.593 85.1902 172.563 85.1753C172.563 85.1753 172.552 85.1753 172.544 85.1641C172.586 85.1753 172.616 85.1977 172.646 85.2015Z" fill="url(#paint4_linear_4332_3)"/>
<path opacity="0.62" d="M221.11 92.1678C219.429 93.7758 217.975 95.6793 218.773 98.1063C219.597 100.608 225.129 104.393 220.357 106.341C218.968 106.906 220.047 108.974 221.429 108.409C223.687 107.489 225.084 105.185 224.429 102.747C223.47 99.1721 218.691 97.7025 222.668 93.8955C223.751 92.8596 222.193 91.1244 221.106 92.1641L221.11 92.1678Z" fill="#C14276"/>
<path d="M162.593 114.432C162.234 114.66 161.825 114.933 161.369 115.184C159.226 115.023 156.619 113.849 153.526 110.629C147.061 103.826 143.601 96.2425 142.867 92.7497C142.687 91.927 142.777 91.1903 142.979 90.6069C143.312 90.4012 143.537 90.3152 143.537 90.3152C145.683 88.5015 150.08 101.317 153.601 105.82C157.099 110.322 164.721 112.989 162.593 114.432Z" fill="url(#paint5_linear_4332_3)"/>
<path d="M162.593 114.432C162.234 114.66 161.825 114.933 161.369 115.184C159.226 115.023 156.619 113.849 153.526 110.629C147.061 103.826 143.601 96.2425 142.867 92.7497C142.687 91.927 142.777 91.1903 142.979 90.6069C143.312 90.4012 143.537 90.3152 143.537 90.3152C145.683 88.5015 150.08 101.317 153.601 105.82C157.099 110.322 164.721 112.989 162.593 114.432Z" fill="url(#paint6_linear_4332_3)"/>
<path d="M160.406 155.865C160.406 155.865 156.368 166.332 160.297 170.016C169.945 179.073 153.672 236.503 210.208 226.387C260.534 217.382 233.545 161.033 233.545 161.033C233.545 161.033 221.114 157.809 215.871 153.834C211.826 150.768 207.062 149.672 206.054 146.34C205.447 144.365 206.328 140.248 206.68 136.882C194.826 133.677 178.724 128.992 177.369 125.506C177.271 125.256 177.17 124.983 177.061 124.691C176.653 123.573 176.174 122.144 175.657 120.551C175.541 120.226 175.436 119.889 175.324 119.542C175.271 119.373 175.219 119.205 175.159 119.026C174.975 118.446 174.784 117.84 174.593 117.238C173.26 112.994 171.885 108.383 171.061 105.582C171.005 105.383 170.945 105.181 170.893 105.006C170.567 103.925 170.365 103.203 170.305 103.016C170.29 102.994 170.294 102.971 170.294 102.971C170.294 102.971 168.874 102.141 167.058 100.836C167.29 102.156 168.413 108.596 169.571 115.937C171.159 126.041 172.818 137.877 172.324 140.528C172.234 140.996 172.046 141.523 171.781 142.088C170.919 143.947 169.226 146.22 167.402 148.393C165.717 150.409 163.919 152.316 162.567 153.711C161.282 155.027 160.406 155.868 160.406 155.868V155.865Z" fill="url(#paint7_linear_4332_3)"/>
<path opacity="0.43" d="M206.031 158.964C206.664 163.508 183.526 141.022 178.226 131.927C173.106 123.12 170.462 104.205 170.312 103.016C170.604 104.025 175.323 120.207 177.372 125.502C178.732 128.991 194.825 133.673 206.683 136.882C204.136 139.862 205.417 154.402 206.031 158.964Z" fill="#C14276"/>
<path d="M210.084 121.098C210.99 121.808 212.065 122.466 213.316 123.024C216.578 124.478 219.762 124.19 222.211 122.676C224.118 121.505 225.578 119.598 226.294 117.197C226.552 116.322 225.949 115.451 225.163 115.473C225.088 115.458 225.005 115.473 224.919 115.492C223.406 115.877 220.987 116.247 217.818 115.896C213.642 115.428 208.657 112.889 206.417 112.384C205.635 112.209 205.189 112.28 205.215 112.766C205.301 114.295 206.241 118.147 210.076 121.101L210.084 121.098Z" fill="#C14276"/>
<path d="M206.425 112.379L206.62 114.065C206.665 114.443 210.444 116.739 215.567 117.424C220.687 118.112 223.77 117.308 224.489 117.162C224.807 117.095 225.024 116.317 225.17 115.468C225.096 115.453 225.013 115.468 224.927 115.487C223.414 115.872 220.994 116.242 217.826 115.89C213.65 115.423 208.665 112.884 206.425 112.379Z" fill="white"/>
<path opacity="0.38" d="M210.084 121.098C210.99 121.808 212.065 122.466 213.316 123.024C216.578 124.478 219.762 124.19 222.211 122.676C220.852 120.436 217.792 119.078 214.436 119.464C212.766 119.654 211.271 120.253 210.08 121.098H210.084Z" fill="url(#paint8_linear_4332_3)"/>
<path d="M168.11 68.5874C168.11 68.5874 168.473 49.3208 183.297 33.7564C198.121 18.1958 198.429 21.0753 210.35 17.9602C226.388 13.7718 232.953 21.9429 232.953 21.9429C232.953 21.9429 207.511 20.5106 193.743 33.3263C179.975 46.1458 178.874 75.2477 178.874 75.2477C178.874 75.2477 166.245 79.5633 168.11 68.5837V68.5874Z" fill="url(#paint9_linear_4332_3)"/>
<path d="M176.567 101.625C176.567 101.625 184.286 117.264 186.283 118.614C188.279 119.964 202.784 122.043 202.784 122.043C202.784 122.043 205.979 119.65 207.043 122.043C208.107 124.437 205.47 126.385 204.526 126.12C203.582 125.854 202.826 124.347 202.826 124.347C202.826 124.347 186.459 123.195 185.661 122.488C184.863 121.782 174.129 106.012 174.129 106.012L176.567 101.625Z" fill="white"/>
<path d="M205.406 127.07C203.671 127.07 202.264 125.538 202.264 123.648C202.264 121.759 203.671 120.227 205.406 120.227C207.141 120.227 208.548 121.759 208.548 123.648C208.548 125.538 207.141 127.07 205.406 127.07Z" fill="#4C2359"/>
<path d="M166.203 111.952C155.746 110.839 148.355 99.7505 149.696 87.1837C151.036 74.617 160.6 65.3312 171.057 66.4433C181.515 67.5555 188.905 78.6444 187.564 91.2112C186.224 103.778 176.66 113.064 166.203 111.952Z" fill="#E00E6E"/>
<path d="M161.277 106.59C153.023 105.713 147.189 96.9612 148.247 87.0437C149.305 77.1263 156.854 69.7982 165.108 70.6761C173.362 71.554 179.196 80.3053 178.138 90.2228C177.08 100.14 169.531 107.468 161.277 106.59Z" fill="url(#paint10_linear_4332_3)"/>
<path d="M166.63 89.007C166.237 92.7018 163.413 95.4317 160.323 95.1026C157.233 94.7735 155.05 91.5126 155.443 87.8178C155.836 84.123 158.66 81.3931 161.75 81.7222C164.84 82.0513 167.024 85.3123 166.63 89.007Z" fill="url(#paint11_linear_4332_3)"/>
<path d="M240.844 217.889C248.829 241.277 291.41 258.55 291.41 258.55L292.994 258.233L307.38 255.361L374.448 210.724C374.448 210.724 379.239 208.062 380.302 203.006C381.37 197.957 364.602 175.373 362.737 175.108C360.875 174.842 354.751 182.838 354.751 182.838C354.751 182.838 305.511 211.248 301.519 210.717C297.526 210.186 254.148 165.011 254.148 165.011C250.211 164.151 242.541 176.585 239.68 191.79C238.091 200.238 237.99 209.542 240.841 217.893L240.844 217.889Z" fill="url(#paint12_linear_4332_3)"/>
<g opacity="0.18">
<path d="M240.845 217.889C248.83 241.277 291.411 258.55 291.411 258.55L292.995 258.232C292.995 258.232 287.95 246.856 289.013 230.114C290.081 213.371 301.523 210.712 301.523 210.712C301.523 210.712 294.073 209.916 288.482 221.079C282.894 232.238 285.557 248.445 285.291 249.863C285.021 251.28 279.433 240.476 269.586 225.065C259.736 209.65 252.215 186.285 252.215 186.285L239.68 191.786C238.092 200.234 237.991 209.538 240.841 217.889H240.845Z" fill="#135ACE"/>
</g>
<path d="M117.731 225.942C119.982 233.874 122.39 242.123 124.652 249.629C128.428 262.142 131.791 272.59 133.316 276.083C137.84 286.445 142.63 315.409 142.63 315.409L142.102 358.65H260.002C260.002 358.65 260.193 332.353 257.609 319.395C257.609 319.395 257.605 319.377 257.601 319.343C255.043 306.37 263.466 280.578 265.86 269.699C267.245 263.391 269.699 258.065 271.114 252.789C272.14 248.956 272.609 245.145 271.713 241.005C269.586 231.166 251.215 198.482 251.485 194.757C251.751 191.04 254.148 164.997 254.148 164.997L206.687 146.078C206.687 146.078 205.975 159.152 204.38 163.669L202.777 168.187C202.777 168.187 183.615 157.824 177.496 152.907C171.376 147.989 169.245 146.662 169.245 146.662L137.308 167.387C137.308 167.387 109.094 184.398 108.559 189.177C108.315 191.384 112.596 207.827 117.727 225.934L117.731 225.942Z" fill="url(#paint13_linear_4332_3)"/>
<path d="M257.612 319.401C257.612 319.401 257.608 319.363 257.601 319.348C257.605 319.386 257.612 319.401 257.612 319.401Z" fill="white"/>
<g opacity="0.18">
<path d="M117.735 225.945C123.727 247.096 130.881 270.502 133.319 276.086C137.843 286.448 142.634 315.412 142.634 315.412L141.304 296.28C141.304 296.28 158.338 298.404 158.604 304.253C158.817 308.942 149.139 344.611 145.27 358.649H151.885C157.536 344.962 171.653 310.991 173.776 308.235C176.436 304.78 238.713 300.262 246.241 300.995C253.533 301.713 257.369 318.302 257.605 319.338C255.05 306.365 263.474 280.577 265.867 269.695C267.253 263.386 269.71 258.064 271.122 252.788C252.792 257.215 217.455 265.136 197.2 265.708C168.994 266.508 143.443 258.535 143.443 258.535C143.443 258.535 141.312 253.753 141.312 246.269C141.312 238.786 136.716 216.02 136.716 216.02C136.716 216.02 128.222 219.008 117.746 225.933L117.735 225.945Z" fill="#135ACE"/>
</g>
<path d="M72.551 340.304C75.2102 346.329 82.6634 357.133 84.4349 357.671C85.6971 358.045 122.117 358.385 143.196 358.55C151.832 358.617 157.892 358.655 157.892 358.655L160.379 344.912L162.151 330.032L121.518 327.548C121.518 327.548 118.506 326.131 117.791 325.249C117.083 324.362 116.285 327.904 116.285 324.452C116.285 323.951 116.229 323.562 116.128 323.259C115.69 321.849 114.375 322.261 113.72 321.842C113.536 321.733 113.405 321.554 113.357 321.258C113.091 319.661 133.585 249.51 136.514 219.742C138.799 196.541 120.544 190.943 112.383 189.604C110.068 189.219 108.566 189.182 108.566 189.182C103.997 188.628 101.379 195.827 93.6635 216.821C85.9443 237.816 70.4161 319.927 70.4161 319.927C70.4161 319.927 69.8843 334.28 72.5472 340.301L72.551 340.304Z" fill="url(#paint14_linear_4332_3)"/>
<g opacity="0.18">
<path d="M110.964 331.627C107.9 338.138 109.765 337.076 109.765 337.076L116.263 330.049L150.881 334.817L143.192 358.553C151.829 358.62 157.889 358.657 157.889 358.657L160.376 344.914L162.147 330.034L121.514 327.551C121.514 327.551 118.503 326.134 117.788 325.251C117.08 324.365 116.282 327.906 116.282 324.455C116.282 323.954 116.226 323.565 116.125 323.262C114.555 325.319 112.544 328.258 110.96 331.624L110.964 331.627Z" fill="#135ACE"/>
<path d="M103.244 330.033C103.993 330.407 110.143 325.048 113.72 321.847C113.537 321.738 113.405 321.559 113.357 321.263C113.091 319.667 133.585 249.515 136.514 219.747C138.799 196.546 120.544 190.948 112.383 189.609C122.113 194.523 132.563 202.339 131.99 213.106C130.926 233.038 111.761 321.794 110.563 322.325C109.364 322.856 102.181 329.502 103.244 330.033Z" fill="#135ACE"/>
</g>
<g opacity="0.31">
<path d="M215.975 358.696L217.537 358.614C217.522 358.307 215.93 327.833 215.14 313.645C214.72 306.132 218.395 287.707 221.638 271.447C224.672 256.234 227.29 243.097 226.709 239.035C225.515 230.685 204.417 170.492 203.518 167.934L202.042 168.45C202.263 169.074 223.986 231.055 225.162 239.256C225.706 243.055 222.986 256.698 220.106 271.14C216.687 288.286 213.151 306.016 213.582 313.727C214.372 327.912 215.96 358.386 215.979 358.689L215.975 358.696Z" fill="#135ACE"/>
</g>
<g opacity="0.43">
<path d="M391.745 165.198C399.595 166.024 406.621 170.65 410.561 177.348C410.445 177.759 410.617 178.234 411.082 178.279C411.52 179.094 411.909 179.943 412.25 180.818C412.614 181.746 414.127 181.338 413.763 180.403C413.453 179.61 413.112 178.832 412.726 178.073C416.475 177.393 419.966 175.788 423.322 174.005C427.22 171.933 430.951 169.569 434.501 166.948C435.303 166.353 434.524 165.003 433.715 165.602C430.295 168.126 426.7 170.415 422.958 172.43C419.509 174.289 415.865 176.054 411.954 176.634C411.606 176.024 411.235 175.437 410.835 174.857C409.917 173.541 408.891 172.322 407.771 171.215C409.823 170.792 411.846 170.235 413.827 169.543C421.808 166.753 429.029 161.877 434.539 155.46C435.191 154.704 434.089 153.59 433.434 154.356C431.917 156.125 430.269 157.782 428.509 159.304C422.258 164.7 414.576 168.376 406.456 169.88C406.419 169.883 406.385 169.895 406.351 169.906C404.984 168.732 403.501 167.7 401.921 166.832C403.363 166.151 404.782 165.426 406.194 164.689C410.269 162.561 414.288 160.295 418.213 157.898C419.895 156.873 421.565 155.815 423.187 154.686C425.179 153.294 427.175 151.814 428.539 149.772C429.097 148.93 427.741 148.149 427.19 148.979C425.782 151.092 423.546 152.576 421.468 153.971C417.913 156.361 414.19 158.526 410.456 160.613C407.085 162.498 403.67 164.345 400.153 165.938C397.527 164.738 394.692 163.949 391.752 163.638C390.752 163.534 390.763 165.097 391.752 165.198H391.745Z" fill="#C14276"/>
</g>
<g opacity="0.18">
<path d="M222.189 152.266C222.189 152.266 219.9 179.465 218.125 179.465C216.35 179.465 204.076 169.517 204.076 169.517C204.076 169.517 203.93 174.151 202.046 177.471C200.166 180.792 198.833 185.833 196.173 185.527C193.514 185.22 162.593 162.416 160.203 159.424C157.814 156.432 163.203 150.595 163.203 150.595L169.252 146.668L202.788 168.193L213.473 153.115L222.192 152.266H222.189Z" fill="#135ACE"/>
</g>
<path d="M169.249 146.672C169.249 146.672 159.934 157.3 160.2 159.428C160.466 161.552 197.193 183.612 197.193 182.812C197.193 182.011 199.234 169.7 199.234 169.7L202.781 168.193L169.245 146.668L169.249 146.672Z" fill="white"/>
<path d="M206.691 146.087L208.818 144.191L222.189 152.265C222.189 152.265 218.043 173.42 216.092 172.534C214.14 171.648 205.979 164.748 205.979 164.748L202.784 168.192L206.691 146.087Z" fill="white"/>
<path d="M295.643 351.711H111.136C109.652 351.711 108.45 352.911 108.45 354.392V355.974C108.45 357.455 109.652 358.655 111.136 358.655H295.643V351.707V351.711Z" fill="#164EA9"/>
<path d="M151.537 358.655H297.242L323.591 266.188C324.834 261.832 321.752 257.438 317.448 257.438H185.148C182.32 257.438 179.822 259.401 179.005 262.265L151.533 358.651L151.537 358.655Z" fill="#164EA9"/>
<path d="M241.623 304.145C240.758 308.82 242.185 313.001 244.807 313.483C247.429 313.965 250.256 310.57 251.122 305.895C251.987 301.221 250.56 297.04 247.938 296.557C245.316 296.075 242.489 299.471 241.623 304.145Z" fill="#4285F4"/>
<path d="M64.712 95.3498L64.5247 92.9115C63.9629 87.848 65.6521 82.3134 70.3488 76.6852C74.5773 71.7152 76.9256 68.0579 76.9256 63.8358C76.9256 59.0528 73.9218 55.8629 68.0004 55.7694C64.6184 55.7694 60.8618 56.895 58.5134 58.6751L56.2588 52.7665C59.3599 50.5152 64.712 49.0156 69.6896 49.0156C80.4912 49.0156 85.3751 55.6759 85.3751 62.8037C85.3751 69.1798 81.8058 73.7758 77.2964 79.1235C73.1615 84 71.6596 88.1285 71.9405 92.9115L72.0342 95.3498H64.7083H64.712ZM62.6446 108.48C62.6446 105.009 64.9929 102.571 68.2813 102.571C71.5698 102.571 73.8244 105.009 73.8244 108.48C73.8244 111.763 71.6634 114.295 68.1877 114.295C64.8993 114.295 62.6446 111.763 62.6446 108.48Z" fill="#B2CDFA"/>
<path d="M323.867 149.353C298.053 149.353 277.126 128.458 277.126 102.682C277.126 76.9069 298.053 56.0117 323.867 56.0117C349.682 56.0117 370.609 76.9069 370.609 102.682C370.609 128.458 349.682 149.353 323.867 149.353Z" fill="#B2CDFA"/>
<path d="M323.867 140.508C302.944 140.508 285.983 123.573 285.983 102.682C285.983 81.7909 302.944 64.8555 323.867 64.8555C344.79 64.8555 361.751 81.7909 361.751 102.682C361.751 123.573 344.79 140.508 323.867 140.508Z" fill="url(#paint15_linear_4332_3)"/>
<path d="M307.159 120.752C307.515 120.752 307.871 120.618 308.145 120.345L325.261 103.258V70.8132C325.261 70.0466 324.639 69.4258 323.871 69.4258C323.103 69.4258 322.482 70.0466 322.482 70.8132V102.106L306.182 118.381C305.639 118.924 305.639 119.802 306.182 120.345C306.455 120.618 306.811 120.752 307.167 120.752H307.159Z" fill="#B2CDFA"/>
<path d="M323.868 107.242C321.346 107.242 319.302 105.201 319.302 102.684C319.302 100.166 321.346 98.125 323.868 98.125C326.389 98.125 328.433 100.166 328.433 102.684C328.433 105.201 326.389 107.242 323.868 107.242Z" fill="#B2CDFA"/>
<path d="M382.95 41.7508V80.9672C382.95 86.0886 387.115 90.2476 392.25 90.2476H411.361V103.838C411.361 105.352 413.077 106.236 414.314 105.358L435.58 90.2476H492.531C497.669 90.2476 501.832 86.0886 501.832 80.9672V41.7508C501.832 36.6239 497.666 32.4648 492.531 32.4648H392.25C387.112 32.4648 382.95 36.6239 382.95 41.7508Z" fill="#4285F4"/>
<path d="M463.4 61.355C462.955 58.6055 464.826 56.0159 467.58 55.5711C470.333 55.1262 472.927 56.9946 473.373 59.7441C473.818 62.4937 471.947 65.0833 469.193 65.5281C466.439 65.9729 463.846 64.1046 463.4 61.355Z" fill="#C6D5ED"/>
<path d="M439.341 61.4002C438.871 58.6547 440.719 56.0486 443.469 55.5793C446.218 55.11 448.828 56.9552 449.298 59.7007C449.768 62.4462 447.92 65.0523 445.171 65.5216C442.421 65.9909 439.811 64.1457 439.341 61.4002Z" fill="#C6D5ED"/>
<path d="M415.282 61.3511C414.837 58.6016 416.708 56.012 419.462 55.5672C422.215 55.1223 424.809 56.9907 425.254 59.7402C425.7 62.4898 423.829 65.0794 421.075 65.5242C418.321 65.969 415.728 64.1007 415.282 61.3511Z" fill="#C6D5ED"/>
<defs>
<linearGradient id="paint0_linear_4332_3" x1="417.007" y1="131.6" x2="381.183" y2="233.925" gradientUnits="userSpaceOnUse">
<stop offset="0.39" stop-color="#FFBD9F"/>
<stop offset="1" stop-color="#EF72A6"/>
</linearGradient>
<linearGradient id="paint1_linear_4332_3" x1="250.766" y1="95.7718" x2="211.17" y2="95.7718" gradientUnits="userSpaceOnUse">
<stop stop-color="#FB5C88"/>
<stop offset="0.98" stop-color="#FDB6A7"/>
</linearGradient>
<linearGradient id="paint2_linear_4332_3" x1="201.785" y1="85.4736" x2="166.009" y2="155.604" gradientUnits="userSpaceOnUse">
<stop offset="0.39" stop-color="#FFBD9F"/>
<stop offset="1" stop-color="#EF72A6"/>
</linearGradient>
<linearGradient id="paint3_linear_4332_3" x1="165.858" y1="79.1527" x2="167.762" y2="86.2451" gradientUnits="userSpaceOnUse">
<stop offset="0.39" stop-color="#FFBD9F"/>
<stop offset="1" stop-color="#EF72A6"/>
</linearGradient>
<linearGradient id="paint4_linear_4332_3" x1="172.621" y1="85.2301" x2="172.637" y2="85.2796" gradientUnits="userSpaceOnUse">
<stop offset="0.39" stop-color="#FFBD9F"/>
<stop offset="1" stop-color="#EF72A6"/>
</linearGradient>
<linearGradient id="paint5_linear_4332_3" x1="142.253" y1="102.166" x2="163.546" y2="103.28" gradientUnits="userSpaceOnUse">
<stop stop-color="white"/>
<stop offset="0.87" stop-color="#CFBBEA"/>
</linearGradient>
<linearGradient id="paint6_linear_4332_3" x1="142.253" y1="102.166" x2="163.546" y2="103.28" gradientUnits="userSpaceOnUse">
<stop stop-color="white"/>
<stop offset="0.87" stop-color="#CFBBEA"/>
</linearGradient>
<linearGradient id="paint7_linear_4332_3" x1="210.368" y1="107.721" x2="191.418" y2="227.148" gradientUnits="userSpaceOnUse">
<stop stop-color="#EF72A6"/>
<stop offset="0.61" stop-color="#FFBD9F"/>
</linearGradient>
<linearGradient id="paint8_linear_4332_3" x1="219.578" y1="121.813" x2="207.478" y2="121.953" gradientUnits="userSpaceOnUse">
<stop offset="0.39" stop-color="#FFBD9F"/>
<stop offset="1" stop-color="#EF72A6"/>
</linearGradient>
<linearGradient id="paint9_linear_4332_3" x1="232.953" y1="46.43" x2="167.923" y2="46.43" gradientUnits="userSpaceOnUse">
<stop stop-color="#FB5C88"/>
<stop offset="0.98" stop-color="#FDB6A7"/>
</linearGradient>
<linearGradient id="paint10_linear_4332_3" x1="178.268" y1="88.6575" x2="148.133" y2="88.6575" gradientUnits="userSpaceOnUse">
<stop stop-color="#FB5C88"/>
<stop offset="0.98" stop-color="#FDB6A7"/>
</linearGradient>
<linearGradient id="paint11_linear_4332_3" x1="166.675" y1="88.4162" x2="155.398" y2="88.4162" gradientUnits="userSpaceOnUse">
<stop stop-color="#FB5C88"/>
<stop offset="0.98" stop-color="#FDB6A7"/>
</linearGradient>
<linearGradient id="paint12_linear_4332_3" x1="294.395" y1="284.305" x2="308.1" y2="207.692" gradientUnits="userSpaceOnUse">
<stop offset="0.41" stop-color="#ECF1FF"/>
<stop offset="1" stop-color="white"/>
</linearGradient>
<linearGradient id="paint13_linear_4332_3" x1="191.428" y1="456.88" x2="190.103" y2="155.319" gradientUnits="userSpaceOnUse">
<stop offset="0.41" stop-color="#ECF1FF"/>
<stop offset="1" stop-color="white"/>
</linearGradient>
<linearGradient id="paint14_linear_4332_3" x1="115.51" y1="412.281" x2="117.5" y2="184.451" gradientUnits="userSpaceOnUse">
<stop offset="0.41" stop-color="#ECF1FF"/>
<stop offset="1" stop-color="white"/>
</linearGradient>
<linearGradient id="paint15_linear_4332_3" x1="322.085" y1="184.52" x2="324.739" y2="62.3049" gradientUnits="userSpaceOnUse">
<stop offset="0.41" stop-color="#ECF1FF"/>
<stop offset="1" stop-color="white"/>
</linearGradient>
</defs>
</svg>
