<?xml version="1.0" encoding="utf-8"?>
<!-- Generator: Adobe Illustrator 27.2.0, SVG Export Plug-In . SVG Version: 6.00 Build 0)  -->
<svg version="1.1" id="Calque_1" xmlns="http://www.w3.org/2000/svg" xmlns:xlink="http://www.w3.org/1999/xlink" x="0px" y="0px"
	 width="382.3653564px" height="355.056366px" viewBox="0 0 382.3653564 355.056366"
	 enable-background="new 0 0 382.3653564 355.056366" xml:space="preserve">
<g>
	<rect fill="none" width="382.3653564" height="355.056366"/>
	<g>
		<path fill="#3200E6" d="M200.3830261,49.9457207c-0.2506714,0.7789917-0.4454346,1.4733276-0.6383667,1.7419434
			c-1.2515259,2.2252808-2.515686,4.7860107-3.8500977,6.8561401c-0.4779053,1.2280884-1.3705444,2.3009644-2.1495361,3.4100952
			c-0.185791,0.932251-3.1341553,6.0031776-3.7473145,8.1977577c-0.8547363,2.890686-3.074646,4.9609375-4.520752,7.4854736
			c-1.2876587,1.9259033-2.9593506,3.2964478-4.9230957,4.4072876c-1.1522827,1.1811523-2.5228271,2.3713379-3.7473145,3.5939331
			c-0.3318481,0.5194702,0.3336792,0.8187256,0.5139771,1.1109009c1.6716309,0.8601685,2.7085571,2.6021118,4.1602783,3.8301392
			c1.2172241,0.9468384,2.2631226,2.1801758,3.1809692,3.2459106c1.071167,1.4859619,3.0061646,2.7122803,3.8933716,4.4938354
			c1.4083862,1.4786987,1.9998169,3.3687134,3.1071167,4.8508911c1.1162109,1.2984619,1.3794556,2.8203735,2.3424683,4.0772705
			c1.5454712,0.2615356,2.4776611-1.4082642,3.1449585-2.2612915c1.7906494-1.3705444,3.6732788-2.8438721,5.2709961-4.5894165
			c7.1447144-6.6450806,13.4112549-12.7871704,20.5703125-19.0175781c1.0424194-1.0062256,1.8863525-1.8897705,3.1864014-2.4146118
			c0.4887695,0.3010864,0.6709595,0.8547363,0.8548584,1.3361816c-0.2650757,1.5959473-0.4905396,3.1882324-0.8548584,4.6759644
			c-1.5255737,4.5949097-3.3324585,8.6738892-4.9319458,13.1244507c-0.4003296,1.1810913-1.1108398,2.1784668-1.5544434,3.2891846
			c-0.5950928,0.5609131-0.9269409,1.5598755-1.3705444,2.2614136c-0.7717896,0.7807617-0.9612427,2.0792236-1.5580444,3.0060425
			c-1.0386963,0.4436035-1.0838013,1.5309448-1.6661987,2.3983765c-0.2272339,0.8890381-1.8178101,2.6057129-2.0792236,3.2027588
			c-1.4445801,1.4732056-5.0023804,4.2611084-5.0023804,4.2611084c-2.3713989,1.9259033-5.5253296,2.6617432-8.340271,4.0050659
			c-0.9342041,0.5464478-2.0738525,0.8458252-3.1919556,1.1452026c-2.3748779,0-4.4955444,0.2253418-7.0004272,0.4307861
			c-0.699585,0.1678467-2.2072144,0.0794678-2.3928833,0.7810059c-0.8187256,2.5877075-1.2750244,7.7902222-1.2750244,7.7902222
			c0.045166,1.1090698-0.2271729,1.8897705-0.1460571,3.0782471c-0.4111328,2.1079712-0.5266113,4.4053955-0.6708374,6.5928345
			c0,0.5284424-0.7086792,9.8352051-1.3326416,13.7952881c-0.2218018,0.6652832-0.0324707,1.5183105-0.37146,2.145874
			c-0.140625,2.7428589-0.2956543,5.5235596-0.4038696,8.0101929c-0.3355103,2.1891479-0.8530273,4.4488525-1.0062256,6.522522
			c-0.9269409,1.1433105-1.5166016,5.1484375-1.5545044,5.8877563c-0.37323,0.5952148-0.742981,1.3723755-1.5201416,1.5237427
			c-0.3570557,0.1010742-0.5140381,0.1659546-0.9251709,0.2183228c-0.4959106-0.1821899-0.5445557-0.5338135-0.8223267-0.9629517
			c-0.7771606-3.1071777-1.817688-6.1185913-2.7716675-9.0020752c-0.2993164-0.9990845-0.5175171-2.2271118-0.8926392-3.3416138
			c-1.3326416-2.517334-1.3687134-5.6677856-1.6680908-8.3365479c-0.4436035-4.4072876-1.3019409-9.4475098-1.074707-13.9341431
			c0.1100464-2.7445068-0.1135864-5.4567871-0.0343018-8.1923828c0.0721436-2.9249268,0.8530273-5.9309082,1.1090088-8.9281006
			c-0.0757446-3.3342896,1.2515259-6.9245605,0.6096191-10.0534058c-0.1677246-1.2694702-0.4868774-1.1396484-0.6096191-1.9204102
			c-0.4436035-0.9251709-1.3289795-1.4860229-1.9294434-2.4507446c-4.4487305-3.1503296-8.0842896-7.2203979-12.0064087-11.0126953
			c-0.559082-0.2939453-0.9972534-0.5140381-1.4805908-0.8115845c-1.9313354,1.0424194-3.6660156,2.56073-5.5973511,3.5598145
			c-4.2666626,2.4795532-8.1906128,5.1861572-12.0100708,8.3383789c-2.2973633,1.2983398-4.2973022,3.5217896-7.0076294,3.9979858
			c-0.8908691,0.560791-1.909668,0.9988403-2.7897339,1.5183105c-4.4667892-0.4328003-13.1460495,0-13.1460495,0
			c-0.7393188-0.0667725-1.6572876,0.2037354-2.6040039-0.0811768c-0.6221313-0.2993774-0.9755859-0.5769653-1.4606323-1.0964355
			c0.2650757-0.6635742,0.4850464-1.4064331,1.2244263-1.7419434c2.8150024-0.5915527,6.0698853-1.6697998,8.6973267-3.2603149
			c2.0792236-0.6726685,3.9005127-1.9620361,5.6316528-3.4876099c0.4906006-0.6636963,1.1505661-1.1071777,1.8592453-1.5164795
			c0.7033081-1.5978394,2.5192871-2.560791,3.5182495-3.9979858c1.4065552-2.3334961,3.4785767-3.822998,4.9663696-6.0771484
			c2.5264282-2.4578247,4.6308594-5.4206543,7.5269165-7.3538208c1.9926758-1.071167,4.2540283-1.1810913,6.477478-1.9186401
			c3.635498-1.2894287,7.3826904-2.187439,10.9370728-3.8140869c1.7438354-1.5544434,3.0800781-3.4874878,4.6038208-5.1501465
			c4.0339966-4.3406372,9.0761108-6.9373169,13.742981-11.2724609c2.1531982-2.2234535,4.3026733-5.1556435,6.338562-7.4548378
			c1.6627197-2.47229,4.6182861-6.149231,7.0112915-9.1697998c-1.0116577-0.0287476-2.0268555-0.0720215-3.0494385-0.0720215
			c-47.6359863,0-86.2484055,38.6193886-86.2484055,86.2480469c0,26.1820679,11.6799927,49.6286011,30.0990524,65.4453125
			c0.4868774-0.6564331,0.9142456-1.2352905,1.0800781-1.4156494c-2.4813843-7.6748047-8.0102539-13.7158203-8.4105759-21.6809692
			c-0.3047485-5.9743652-1.1901245-11.460083-0.6816406-17.2756348c0.6816406-5.3756104,1.0819626-11.1516113,3.2350998-16.0872192
			c4.2233887-7.5180664,9.5647583-14.7925415,14.7853394-21.4970703l0.3353882-0.2614746
			c0-0.0667725,1.9655151,0.3352661,2.8185425,1.0783691c0.4075928,0.4093018,0.0343018,1.1090088,0.4075928,1.4443359
			c0,0-0.2993774,1.8178101-0.4887085,2.6347046c-0.1460571,1.0350952-0.8096313,2.326355-1.0008545,3.5975342
			c-0.8097534,0.699707-2.1784058,3.776062-2.4777222,4.7409668l-0.2561035,0.8527832
			c-1.446228,4.5949097-3.9690552,8.9642334-5.1141357,13.5969849c-0.5608521,2.6688843-0.3390503,5.4135132-0.3012085,8.1563721
			c-0.0378418,1.9330444-0.0378418,4.1204834,0.0721436,5.7470093c0.4093628,2.7085571,0.7844849,5.3071289,1.6735229,8.0048828
			c0.699707,1.4588623,0.9556885,2.4939575,1.630188,4.1963501c0.7609253,2.9806519,1.7761841,5.5144043,2.7806396,8.3292847
			c0.2199707,0.4905396,0.4598389,2.8078003,1.9926758,3.2693481c1.5598755,0.0361328,2.8582764,0.2543945,4.4127197,0.0703735
			c1.1829224,0.4454346,2.6706543,0.555481,3.9329834,0.4021606c6.4503784,0.7159424,12.9314575,0.5626221,19.4215698,0.4436646
			c3.1124878-0.5175781,6.0014038-1.0352173,9.1878662-1.4354248c2.37854,0.1821289,4.9970093-0.0811157,7.59375-0.0811157
			c1.3794556-0.2236938,3.1900635-0.3643188,4.4884033-0.4021606c1.8988647,0.2542114,4.3044434-0.5969238,6.0806885,0
			c3.0367432,0.5482178,6.1907959,0.3660278,9.1229858,0.5932007c0.4111328,0,0.3317871,0.4796753,0.3317871,0.7357788
			c-0.9593506,0.418396,0,1.4823608-0.6690674,2.0719604c-4.3748169,2.1513672-8.8631592,3.822998-13.0522461,5.822876
			l-0.3318481,0.3336182c-3.074646,2.0358887-6.9661255,2.0719604-9.8135376,4.1873169
			c-0.8963623,0.189209-1.6717529,0.4813232-2.5265503,0.2613525c-1.585083,0.2578735-3.0313721,0.8115234-4.4812012,1.4102783
			c-6.8579712,1.3649902-13.7537842,2.8202515-20.6026611,4.0032349c-0.1984253,0.1443481-1.7492065,1.1126099-2.0089111,1.817749
			c-0.4075317,0.1821899-0.2542114,0.8078613-0.6672363,1.1072388c-0.6924438,1.5905151-0.7159424,3.2531738-0.8187256,4.8526611
			c10.5620117,4.612854,22.2130737,7.1771851,34.4683228,7.1771851c22.1049805,0,42.2442627-8.3151245,57.5129395-21.9858398
			c-0.1659546-3.2964478-1.5581665-7.7974243-1.9133911-10.0534058c-3.1016846-4.9752197-5.0726929-10.0515137-7.9975586-15.0845947
			c-0.7105713-2.4812622-2.3082886-4.567749-3.0061646-7.1229858c-0.742981-0.8511963-0.928772-2.4056396-1.7798462-3.3324585
			c-2.5552979-0.1894531-5.1142578,0.6635742-7.637085,0.6635742c-0.8529053,0.6347656-2.2559204,0.8908691-3.3703613,1.3434448
			c-1.119812-0.2253418-2.4885254,0.2902832-3.5615234-0.0794067c-2.2595825,0.2921143-8.0462646,0.8890381-8.7405396,1.071167
			c-2.3786621,0.3336792-4.9302368,0.5897827-7.3467407,1.0784912c-1.0567627,0.0882568-1.5904541,0.3425293-2.8600464,0.3641968
			c-1.6192627,0.0739136-2.517334-0.2542725-3.8391724-0.326355c-1.7528076,0.6275635-3.447937,0.2181396-5.1611328,0.6275635
			c-0.4400024-0.4094238-1.2190552-0.8168945-1.1882935-1.4877319c0.0774536-0.3282471-0.513916-0.9936523,0-1.3273315
			c1.677063-0.3010864,3.0114136-1.4443359,4.6759644-1.7528076c0.4471436-0.4363403,2.519104-0.3642578,2.3713379-0.7284546
			c3.6318359-1.5255737,7.7091675-1.9692993,10.9694214-4.0484009c1.1109009-0.1478882,2.00354-0.8097534,3.1179199-0.9558105
			c4.6994629-1.7004395,9.0056763-3.8590698,13.8223877-5.6028442c6.5189209-1.5092163,11.8621216-4.7426147,18.0113525-6.8578491
			c1.2984009-0.0361328,2.2686157-0.6276245,3.1846924-1.4805298c1.3452148-1.5545044,2.2270508-3.5164185,3.2333374-5.3341064
			c2.1856079-2.5967407,2.8528442-5.8554077,5.6678467-8.0735474c0.8474731-1.1972656,1.215332-2.5696411,2.1818848-3.6768188
			c0-1.7888184-0.6654053-3.4443359-1.4786377-5.0040894c-1.5147705-2.1514282-3.0783081-4.6688232-4.2630615-7.0419922
			c-2.7806396-3.8210449-3.9961548-8.4898682-4.7390137-12.8953247c-1.0459595-1.7005005-2.934021-2.2991333-4.2684937-3.7797241
			h-0.18396c-1.0765381-0.7068481-1.7076416-1.305603-2.5949707-2.1513672
			c-1.8086548-1.1469116-2.5930786-2.888855-3.9654541-4.4144287c-1.3740845-0.9972534-1.7041016-2.7427979-2.003479-4.1223145
			c2.2631836-0.4363403,4.4866333-0.0270386,6.6380005-0.328125c0.885498,0.3731689,1.9962769-0.2183838,2.8438721,0.2559814
			c1.1630859,1.3434448,2.0809326,2.8599243,2.6778564,4.4577026c6.1889648,8.901123,13.6437988,16.0494385,19.8670654,24.4960327
			c1.1901245,0.6726685,0.6275024,2.4146118,1.1468506,3.4082031c0.4796753,2.2252808,0.7033081,4.5929565,0.9972534,6.7478638
			c1.0043945,4.4848633-0.9539795,8.6794434-0.6618042,13.1893921c0,0-1.0405273,10.2698364-1.6626587,14.8735962
			c-0.9665527,3.7797241-0.7844238,7.8516235-1.9277954,11.6348877c-0.5247192,2.3334961-1.3795166,4.8887939-1.8969727,7.3864136
			c0.2235107,1.0980835-0.8909302,1.7996216-0.5915527,3.1412354c0.3119507,0.3643188,2.3839111,1.2839966,3.9691162,1.9404297
			c7.6153564-12.8538818,11.9991455-27.8519897,11.9991455-43.8796997
			C277.4309998,91.1763153,243.6930237,54.5332451,200.3830261,49.9457207z M158.6400452,65.3674164
			c1.0784302-0.6274414,2.048645,0.5177002,3.074646,0.699707c0.973877,1.3363647,1.3742065,3.1144409,1.8232422,4.6398926
			c1.0368652,1.5166016-0.2651978,3.0710449-0.230896,4.7805786c-0.5067139,1.1433105-1.256958,2.2614136-1.8447876,3.3306885
			c-1.116272,0.5627441-2.1873779,1.7438354-3.4857788,0.8908081c-0.4111328,0.1100464-1.3651123-0.2901611-1.5201416-0.2901611
			c-1.2226562-0.8621216-3.5831909-0.4545288-3.6751709-2.5264893c-0.2488403-2.8961182-1.8826904-5.2313232-2.1351318-8.156311
			C152.2365417,65.811142,156.1966248,66.7740936,158.6400452,65.3674164z M162.6109924,170.9613495
			c-1.2947998,1.8610229-1.7744141,3.8897705-2.8185425,6.0141602c0.0793457,0.5462646-0.555481,0.5084839-0.9268799,0.7355957
			c-0.4057617,0.5536499-0.9612427,0.7789917-1.5526733,0.7789917c-1.0802002-0.5626221-2.0431519,0.3661499-3.0007324-0.5247192
			c-1.1865845-1.3362427-2.0413208-2.9609375-2.3353271-4.6687012c-0.8564453-2.6707153,0.2182617-5.1862793,0.4779053-7.8497314
			c0.4779053-1.5328369,1.0784302-3.1954956,1.999939-4.6381226c0.3317261-0.744812,0.5102539-1.5634155,1.3686523-1.9349365
			c0.3858643-0.3353271,0.8566284-0.2541504,1.116272-0.4381104c1.2189941-0.043396,2.5606079-0.8601685,3.6787109,0.4434814
			c0.1803589,0.7376099,0.8439331,1.1109619,1.1793823,1.817688c0.4454346,2.3787231,1.5093384,4.8221436,1.6643677,7.0023193
			C163.2420959,168.7722015,162.8003235,169.7801971,162.6109924,170.9613495z M235.5960999,117.3277435l0.326416,0.2632446
			c1.5617065,0.7827148,3.1882324,0.8547974,4.7878418,1.5183716c1.9331665,0.4075317,3.4046021,2.2252808,4.289978,3.8158569
			c0.3029785,1.5615845,0.3751221,3.4207153,0.5663452,5.0042114c-0.0109253,2.4000854,1.9925537,6.7839355-1.8592529,7.9289551
			c-2.0341187,0.0811768-3.7382202-0.9989624-5.5145264-1.772583c-0.9720459-0.1533203-1.8592529-1.0422363-2.5968018-1.5617065
			c-2.7896729-1.4065552-2.2252197-4.8147583-3.4136353-7.1843872c-0.1135864-1.6283569-0.4850464-3.4442139-0.7393188-5.1574097
			c-0.1533203-0.746521,0.2199707-1.3722534,0.4815063-2.1096802
			C232.8478699,116.9653168,234.297699,116.9994965,235.5960999,117.3277435z M120.2501602,284.8013611h22.0979538v-9.0663452
			h-22.0979538V265.221405h23.320549v-9.0661621h-33.2027512v49.4505615h34.4253464v-9.0662842h-24.5431442V284.8013611z
			 M76.3739395,285.2101746h9.8597412v10.3071289c-2.7629395,1.4696045-6.4267578,2.2468262-10.6289062,2.2468262
			c-9.3416748,0-15.8635254-7.0826416-15.8635254-17.2236938c0-9.5845337,6.6696167-16.5436401,15.8635254-16.5436401
			c4.7042236,0,9.2342529,1.6842041,12.1166382,4.5038452l0.4696655,0.4594727l7.2687988-7.3497925l-0.5181274-0.4615479
			c-4.6879272-4.18396-11.0379028-6.2182465-19.4058228-6.2182465c-15.359436,0-26.0856934,10.7543793-26.0856934,26.1544037
			c0,15.1591187,10.7262573,25.7454224,26.0856934,25.7454224c7.4246826,0,14.2319946-1.6273804,20.2316895-4.8356934
			l0.3482056-0.1882935v-25.6623535H76.3739395V285.2101746z M239.0453186,256.1552429h-19.6264648v49.4505615h18.6063843
			c12.6793823,0,26.1543579-8.6655273,26.1543579-24.7253418
			C264.1795959,263.8005066,251.5568542,256.1552429,239.0453186,256.1552429z M235.0354919,296.5395203h-5.7344971V265.221405
			h7.161499c7.9510498,0,17.4261475,2.7164917,17.4261475,15.6590576
			C253.8886414,295.0132751,240.7032166,296.5395203,235.0354919,296.5395203z M276.2558899,305.6058044h9.8820801v-49.4505615
			h-9.8820801V305.6058044z M318.6098938,275.9373474c-4.7709961-1.538208-8.5400391-2.7506714-8.5400391-6.4104614
			c0-4.0767212,3.7346802-5.5300903,7.2283325-5.5300903c3.3723145,0,6.3235474,1.3198242,7.8944092,3.5322266l0.463501,0.6497803
			l7.258667-7.6514282l-0.4797363-0.4534302c-4.4956665-4.2506561-10.2321777-5.1434174-14.2542114-5.1434174
			c-9.1594849,0-18.4017944,4.7021332-18.4017944,15.2075653c0,10.1269531,7.7383423,12.637085,13.9545898,14.6550903
			c4.7710571,1.5485229,8.8903198,2.8845825,8.8903198,7.0341187c0,3.855896-4.0059204,5.9368286-7.7729492,5.9368286
			c-3.659668,0-7.0137329-1.7711792-8.9691162-4.7365723l-0.4371948-0.6619263l-7.4692383,7.234375l0.3947144,0.4695435
			c4.6959839,5.5889282,11.4447632,6.7608032,16.2764282,6.7608032c11.0964966,0,18.2662964-6.2890625,18.2662964-16.0233765
			C332.9128723,280.5404358,324.9840393,277.9879456,318.6098938,275.9373474z M181.4431458,254.9264374
			c-0.2024536,0-0.402832,0-0.5950928,0.0040894c-15.3595581,0-26.0856934,10.7543793-26.0856934,26.1544037
			c0,15.1591187,10.7261353,25.7454224,26.0856934,25.7454224h0.012146
			c15.7178345-0.2833252,26.2778931-10.7402344,26.2778931-26.0187378
			C207.138092,265.3266296,196.8107605,254.9264374,181.4431458,254.9264374z M180.9169006,297.7641296
			c-9.3415527,0-15.8635254-7.0826416-15.8635254-17.2236938c0-9.5845337,6.6697388-16.5436401,15.8635254-16.5436401
			c9.2302856,0,15.932312,6.9591064,15.932312,16.5436401C196.8492126,290.681488,190.2969055,297.7641296,180.9169006,297.7641296z
			"/>
	</g>
</g>
</svg>
