<?xml version="1.0" encoding="UTF-8" standalone="no"?><svg xmlns:dc="http://purl.org/dc/elements/1.1/" xmlns:cc="http://creativecommons.org/ns#" xmlns:rdf="http://www.w3.org/1999/02/22-rdf-syntax-ns#" xmlns:svg="http://www.w3.org/2000/svg" xmlns="http://www.w3.org/2000/svg" viewBox="0 0 283.40036 49.999999" height="50" width="283.40036" id="svg10" version="1.1"><metadata id="metadata16"><rdf:RDF><cc:Work rdf:about=""><dc:format>image/svg+xml</dc:format><dc:type rdf:resource="http://purl.org/dc/dcmitype/StillImage"/><dc:title/></cc:Work></rdf:RDF></metadata><defs id="defs14"/><g transform="translate(-2.5996607,-36.441881)" id="g18"><g id="g22"><path id="path36" d="M 111.65834,71.447225 C 111.84625,71.354029 112,70.700242 112,69.994365 c 0,-1.144203 -0.0994,-1.298476 -0.91666,-1.42228 -0.83918,-0.127123 -0.82355,-0.143083 0.18493,-0.188806 l 1.10159,-0.04994 -0.10159,1.557277 c -0.0605,0.927757 -0.2734,1.59139 -0.5266,1.641667 -0.23375,0.04641 -0.27125,0.0081 -0.0833,-0.08505 z M 39.481804,61.000002 c 0,-5.775 0.0454,-8.137501 0.100897,-5.25 0.05549,2.8875 0.05549,7.6125 0,10.5 -0.05549,2.8875 -0.100897,0.525 -0.100897,-5.25 z m 6.673307,4.027513 c 0.0098,-5.46388 0.08947,-6.493717 0.511557,-6.60871 0.36226,-0.0987 0.38731,-0.05624 0.09094,0.154123 -0.29207,0.20731 -0.438374,2.097377 -0.51156,6.60871 l -0.102497,6.318364 0.01157,-6.472487 z m 9.648647,0.639153 c 0,-3.208333 0.04999,-4.520833 0.1111,-2.916666 0.0611,1.604166 0.0611,4.229166 0,5.833333 -0.06111,1.604167 -0.1111,0.291667 -0.1111,-2.916667 z m 105.467082,5.438964 c 0.24062,-0.09629 0.52812,-0.08445 0.63889,0.0263 0.11076,0.110763 -0.0861,0.189547 -0.4375,0.175073 -0.38832,-0.016 -0.4673,-0.09498 -0.20139,-0.201386 z m 3,0 c 0.24062,-0.09629 0.52812,-0.08445 0.63889,0.0263 0.11076,0.110763 -0.0861,0.189547 -0.4375,0.175073 -0.38832,-0.016 -0.4673,-0.09498 -0.20139,-0.201386 z m 76.33333,0 c 0.24063,-0.09629 0.52813,-0.08445 0.63889,0.0263 0.11077,0.110763 -0.0861,0.189547 -0.4375,0.175073 -0.38831,-0.016 -0.4673,-0.09498 -0.20139,-0.201386 z M 131.79392,67.166668 c 6.7e-4,-2.2 0.0546,-3.056623 0.11989,-1.903603 0.0653,1.153017 0.0647,2.953017 -0.001,4 -0.0659,1.04698 -0.11934,0.103604 -0.11868,-2.096397 z m 11.00606,-1 c 3.4e-4,-2.75 0.0521,-3.830643 0.11473,-2.40143 0.0626,1.42921 0.0623,3.67921 -0.001,5.000001 -0.0631,1.320786 -0.11434,0.15143 -0.11388,-2.598571 z m 32.66181,0.833334 c 0,-2.291667 0.0533,-3.229167 0.11835,-2.083334 0.0651,1.145834 0.0651,3.020834 0,4.166667 -0.0651,1.145834 -0.11835,0.208334 -0.11835,-2.083333 z m 10.33545,-0.333334 c 0,-2.475 0.0525,-3.4875 0.11661,-2.25 0.0641,1.2375 0.0641,3.262501 0,4.500001 -0.0641,1.2375 -0.11661,0.225 -0.11661,-2.250001 z m 43.6786,-3 c 0,-4.125 0.0478,-5.8125 0.10634,-3.75 0.0585,2.0625 0.0585,5.4375 0,7.5 -0.0585,2.062501 -0.10634,0.375001 -0.10634,-3.75 z m 23.31809,3.5 c 6.6e-4,-2.2 0.0546,-3.056623 0.11988,-1.903603 0.0653,1.153017 0.0647,2.953017 -0.001,4 -0.0659,1.04698 -0.11935,0.103604 -0.11869,-2.096397 z m 11.00606,-1 c 3.3e-4,-2.75 0.0521,-3.830643 0.11473,-2.40143 0.0626,1.42921 0.0623,3.67921 -10e-4,5.000001 -0.0631,1.320786 -0.11435,0.15143 -0.11388,-2.598571 z m 12.25265,4.166667 c 0,-0.458333 0.0757,-0.645833 0.16813,-0.416666 0.0925,0.229166 0.0925,0.604166 0,0.833333 -0.0925,0.229167 -0.16813,0.04167 -0.16813,-0.416667 z m -59.09516,-0.583333 c -0.41462,-0.528687 -0.40283,-0.540477 0.12586,-0.125853 0.55525,0.435456 0.73183,0.709186 0.45748,0.709186 -0.0692,0 -0.33172,-0.2625 -0.58334,-0.583333 z M 90.957482,69.083335 c -0.414623,-0.528686 -0.402833,-0.540476 0.125853,-0.125853 0.55525,0.435457 0.731827,0.709187 0.45748,0.709187 -0.06922,0 -0.331716,-0.2625 -0.583333,-0.583334 z m 65.844188,-0.166666 -0.635,-0.75 0.75,0.634996 c 0.4125,0.349247 0.75,0.686747 0.75,0.75 0,0.26675 -0.26826,0.06982 -0.865,-0.634996 z m -60.051668,-0.81311 c 0.320834,-0.08384 0.845834,-0.08384 1.166667,0 0.320833,0.08384 0.05833,0.152443 -0.583333,0.152443 -0.641667,0 -0.904167,-0.0686 -0.583334,-0.152443 z M 79.624149,67.083335 c -0.414624,-0.528687 -0.402834,-0.540477 0.125853,-0.125853 0.320833,0.251616 0.583333,0.514117 0.583333,0.583333 0,0.274347 -0.27373,0.09777 -0.709186,-0.45748 z m 86.790141,0.07936 c 0.48533,-0.529756 0.64992,-0.55985 1,-0.182843 0.33746,0.363417 0.33508,0.403723 -0.0122,0.207017 -0.2372,-0.134344 -0.6872,-0.05207 -1,0.182843 -0.51206,0.384544 -0.51084,0.36391 0.0122,-0.207017 z m 69.87653,-0.07936 c -0.41462,-0.528687 -0.40283,-0.540477 0.12585,-0.125853 0.55525,0.435456 0.73183,0.709187 0.45748,0.709187 -0.0692,0 -0.33171,-0.262501 -0.58333,-0.583334 z m 33.09515,-0.416667 c 0,-0.458333 0.0757,-0.645833 0.16813,-0.416666 0.0925,0.229166 0.0925,0.604166 0,0.833333 -0.0925,0.229167 -0.16813,0.04167 -0.16813,-0.416667 z M 100.35965,66.138892 c 0.016,-0.388317 0.095,-0.4673 0.20139,-0.20139 0.0963,0.240623 0.0844,0.528123 -0.0263,0.63889 -0.11076,0.110763 -0.18955,-0.08611 -0.17507,-0.4375 z m 46.04399,-3.055557 -0.0703,-3.75 H 145.16667 144 l 0.0582,-1.583333 0.0582,-1.583334 0.1276,1.416667 c 0.11894,1.320483 0.1949,1.416667 1.11889,1.416667 0.54522,0 1.06714,0.19764 1.15984,0.4392 0.0927,0.241563 0.11962,2.004063 0.0598,3.916666 l -0.1087,3.477467 z m 62.34036,2.583333 c 0,-0.641666 0.0686,-0.904166 0.15245,-0.583333 0.0838,0.320833 0.0838,0.845833 0,1.166667 -0.0838,0.320833 -0.15245,0.05833 -0.15245,-0.583334 z m -6.41066,0.20748 c 0,-0.06922 0.2625,-0.331716 0.58333,-0.583333 0.52869,-0.414623 0.54048,-0.402833 0.12585,0.125853 -0.43545,0.55525 -0.70918,0.731827 -0.70918,0.45748 z m -44.00054,-0.95748 c 2.9e-4,-0.1375 2.54148,-0.25 5.64708,-0.25 h 5.64655 l 0.1432,-1.25 0.1432,-1.25 -0.0398,1.333334 -0.0397,1.333333 -5.75054,0.166667 c -3.1628,0.09167 -5.7503,0.05417 -5.75,-0.08333 z M 89.385965,64.000002 c 0,-0.458334 0.07566,-0.645834 0.16813,-0.416667 0.09247,0.229167 0.09247,0.604167 0,0.833333 -0.09247,0.229167 -0.16813,0.04167 -0.16813,-0.416666 z M 235.07734,63.666668 c 0,-0.641666 0.0686,-0.904166 0.15244,-0.583333 0.0838,0.320833 0.0838,0.845833 0,1.166667 -0.0838,0.320833 -0.15244,0.05833 -0.15244,-0.583334 z M 74.744002,63.000002 c 0,-0.641667 0.0686,-0.904167 0.152443,-0.583334 0.08384,0.320834 0.08384,0.845834 0,1.166667 -0.08384,0.320833 -0.152443,0.05833 -0.152443,-0.583333 z m -3.410667,0.20748 c 0,-0.06922 0.2625,-0.331717 0.583333,-0.583334 0.528687,-0.414623 0.540477,-0.402833 0.125854,0.125854 -0.435457,0.55525 -0.709187,0.731826 -0.709187,0.45748 z m 18.05263,-0.874147 c 0,-0.458333 0.07566,-0.645833 0.16813,-0.416667 0.09247,0.229167 0.09247,0.604167 0,0.833334 -0.09247,0.229166 -0.16813,0.04167 -0.16813,-0.416667 z m 72.767945,0.0838 c 2.66463,-0.07096 4.07271,-0.24068 4.2449,-0.511657 0.17796,-0.28007 0.25923,-0.22506 0.26276,0.177857 0.005,0.529033 -0.39052,0.57666 -4.2449,0.511657 l -4.25,-0.07168 z m 43.66923,0.0079 c 1.55794,-0.07174 2.77457,-0.28829 2.94205,-0.523657 0.2022,-0.284167 0.246,-0.25536 0.15003,0.09867 -0.10616,0.39162 -0.74388,0.505127 -2.94205,0.523657 l -2.8065,0.02367 2.65647,-0.122326 z m 65.7602,-0.0023 c 0.77917,-0.07018 2.05417,-0.07018 2.83333,0 0.77917,0.07018 0.14167,0.1276 -1.41666,0.1276 -1.55834,0 -2.19584,-0.05742 -1.41667,-0.1276 z m -59.55702,-1.283706 c 0.016,-0.388317 0.095,-0.4673 0.20139,-0.20139 0.0963,0.240623 0.0845,0.528123 -0.0263,0.63889 -0.11077,0.110763 -0.18955,-0.08611 -0.17508,-0.4375 z M 62.459391,57.666668 c 0,-2.108333 0.05412,-2.970833 0.120274,-1.916666 0.06615,1.054166 0.06615,2.779166 0,3.833333 -0.06615,1.054167 -0.120274,0.191667 -0.120274,-1.916667 z m 28.617944,2.333334 c 0,-0.641667 0.0686,-0.904167 0.152444,-0.583334 0.08384,0.320834 0.08384,0.845834 0,1.166667 -0.08384,0.320833 -0.152444,0.05833 -0.152444,-0.583333 z m 41.589335,0.540813 c 0,-0.06922 0.2625,-0.331717 0.58333,-0.583333 0.52869,-0.414624 0.54048,-0.402834 0.12586,0.125853 -0.43546,0.55525 -0.70919,0.731827 -0.70919,0.45748 z m 26.33333,0 c 0,-0.06922 0.2625,-0.331717 0.58334,-0.583333 0.52868,-0.414624 0.54047,-0.402834 0.12585,0.125853 C 159.27373,60.638585 159,60.815162 159,60.540815 Z m 6.29082,-0.45748 c -0.41463,-0.528687 -0.40284,-0.540477 0.12585,-0.125853 0.32083,0.251616 0.58333,0.514116 0.58333,0.583333 0,0.274347 -0.27373,0.09777 -0.70918,-0.45748 z m 88.37585,0.45748 c 0,-0.06922 0.2625,-0.331717 0.58334,-0.583333 0.52868,-0.414624 0.54047,-0.402834 0.12585,0.125853 -0.43546,0.55525 -0.70919,0.731827 -0.70919,0.45748 z m 5.62415,-0.45748 c -0.41462,-0.528687 -0.40283,-0.540477 0.12585,-0.125853 0.55525,0.435456 0.73183,0.709186 0.45748,0.709186 -0.0692,0 -0.33171,-0.2625 -0.58333,-0.583333 z M 102.33334,58.500002 c 0.43058,-0.458334 0.85787,-0.833334 0.94954,-0.833334 0.0917,0 -0.18563,0.375 -0.61621,0.833334 -0.43058,0.458333 -0.85788,0.833333 -0.94954,0.833333 -0.0917,0 0.18562,-0.375 0.61621,-0.833333 z m 33.25,0.612573 c 0.22916,-0.09247 0.60416,-0.09247 0.83333,0 0.22917,0.09247 0.0417,0.16813 -0.41667,0.16813 -0.45833,0 -0.64583,-0.07566 -0.41666,-0.16813 z m 15.67263,-0.0208 c 0.59912,-0.07419 1.49912,-0.07266 2,0.0034 0.50089,0.07606 0.0107,0.136757 -1.0893,0.134887 -1.1,-0.002 -1.50981,-0.0641 -0.9107,-0.138287 z m 38.3482,0.01387 c 0.24062,-0.09629 0.52813,-0.08445 0.63889,0.0263 0.11076,0.110763 -0.0861,0.189546 -0.4375,0.175073 -0.38832,-0.016 -0.4673,-0.09498 -0.20139,-0.201387 z m 24.64972,-0.008 c 0.41464,-0.07973 1.01464,-0.0767 1.33333,0.0067 0.3187,0.08343 -0.0206,0.148666 -0.75388,0.144966 -0.73334,-0.0037 -0.99409,-0.07196 -0.57945,-0.151693 z m 6.33542,-0.0058 c 0.59912,-0.07419 1.49912,-0.07266 2,0.0034 0.50088,0.07606 0.0107,0.136757 -1.0893,0.134887 -1.1,-0.002 -1.50982,-0.0641 -0.9107,-0.138287 z m 18.33125,0.0058 c 0.41464,-0.07973 1.01464,-0.0767 1.33333,0.0067 0.3187,0.08343 -0.0206,0.148666 -0.75388,0.144966 -0.73334,-0.0037 -0.99409,-0.07196 -0.57945,-0.151693 z m 17.66278,0.015 c 0.22917,-0.09247 0.60417,-0.09247 0.83333,0 0.22917,0.09247 0.0417,0.16813 -0.41666,0.16813 -0.45834,0 -0.64584,-0.07566 -0.41667,-0.16813 z m -99.75,-0.779273 c 0.33183,-0.366667 0.67832,-0.666667 0.76999,-0.666667 0.0917,0 -0.10483,0.3 -0.43666,0.666667 -0.33183,0.366667 -0.67833,0.666667 -0.76999,0.666667 -0.0917,0 0.10483,-0.3 0.43666,-0.666667 z M 70.077335,57.666668 c 0,-0.641666 0.0686,-0.904166 0.152443,-0.583333 0.08384,0.320833 0.08384,0.845833 0,1.166667 -0.08384,0.320833 -0.152443,0.05833 -0.152443,-0.583334 z m 70.897435,0.08333 -0.8081,-0.916667 0.91667,0.808103 c 0.85676,0.755297 1.06953,1.02523 0.8081,1.02523 -0.0597,0 -0.47221,-0.4125 -0.91667,-0.916666 z m 121.00001,0 -0.80811,-0.916667 0.91667,0.808103 c 0.50417,0.44446 0.91667,0.85696 0.91667,0.916667 0,0.261427 -0.26994,0.04866 -1.02523,-0.808103 z m -212.885102,0.35234 c 0.324323,-0.08451 0.774323,-0.07896 1,0.01237 0.225676,0.09131 -0.03968,0.160457 -0.589677,0.153663 -0.55,-0.0068 -0.734647,-0.0815 -0.410323,-0.166013 z m 32.666667,0 c 0.324324,-0.08451 0.774324,-0.07896 1,0.01237 0.225677,0.09131 -0.03968,0.160457 -0.589676,0.153663 -0.55,-0.0068 -0.734647,-0.0815 -0.410324,-0.166013 z m 94.076995,-0.43567 c 0.33183,-0.366666 0.67832,-0.666666 0.76999,-0.666666 0.0917,0 -0.10483,0.3 -0.43666,0.666666 -0.33183,0.366667 -0.67833,0.666667 -0.76999,0.666667 -0.0917,0 0.10483,-0.3 0.43666,-0.666667 z m 19.12414,0.08333 c -0.41462,-0.528687 -0.40283,-0.540477 0.12586,-0.125854 0.55525,0.435457 0.73182,0.709187 0.45748,0.709187 -0.0692,0 -0.33172,-0.2625 -0.58334,-0.583333 z M 76.666668,57.207482 c 0,-0.06922 0.2625,-0.331717 0.583334,-0.583334 0.528686,-0.414623 0.540476,-0.402833 0.125853,0.125854 -0.435457,0.55525 -0.709187,0.731826 -0.709187,0.45748 z M 53.957481,56.416668 c -0.414623,-0.528686 -0.402833,-0.540476 0.125854,-0.125853 0.320833,0.251617 0.583333,0.514117 0.583333,0.583333 0,0.274347 -0.27373,0.09777 -0.709187,-0.45748 z m 82.125859,-0.31311 c 0.32083,-0.08384 0.84583,-0.08384 1.16666,0 0.32084,0.08384 0.0583,0.152444 -0.58333,0.152444 -0.64167,0 -0.90417,-0.0686 -0.58333,-0.152444 z m 10.34533,-1.270223 c 0.003,-0.916667 0.0672,-1.252104 0.14386,-0.745417 0.0766,0.506687 0.0746,1.256687 -0.005,1.666667 -0.0791,0.40998 -0.14181,-0.0046 -0.13931,-0.92125 z m 15.49189,1.264247 c 0.41463,-0.07973 1.01463,-0.0767 1.33333,0.0067 0.3187,0.08343 -0.0206,0.148667 -0.75389,0.144967 -0.73333,-0.0037 -0.99408,-0.07196 -0.57944,-0.151694 z m 17.66278,0.015 c 0.22916,-0.09247 0.60416,-0.09247 0.83333,0 0.22917,0.09247 0.0417,0.16813 -0.41667,0.16813 -0.45833,0 -0.64583,-0.07566 -0.41666,-0.16813 z m 10.5,-0.009 c 0.32083,-0.08384 0.84583,-0.08384 1.16666,0 0.32084,0.08384 0.0583,0.152444 -0.58333,0.152444 -0.64167,0 -0.90417,-0.0686 -0.58333,-0.152444 z m 14.83333,-0.0055 c 0.4125,-0.07945 1.0875,-0.07945 1.5,0 0.4125,0.07945 0.075,0.144456 -0.75,0.144456 -0.825,0 -1.1625,-0.06501 -0.75,-0.144456 z m 34.00389,-6.67e-4 c 0.41464,-0.07973 1.01464,-0.0767 1.33333,0.0067 0.3187,0.08343 -0.0206,0.148667 -0.75388,0.144967 -0.73334,-0.0037 -0.99409,-0.07196 -0.57945,-0.151693 z m 18.16278,0.006 c 0.32083,-0.08384 0.84583,-0.08384 1.16667,0 0.32083,0.08384 0.0583,0.152443 -0.58334,0.152443 -0.64166,0 -0.90416,-0.0686 -0.58333,-0.152443 z m 14.83333,-0.0055 c 0.4125,-0.07945 1.0875,-0.07945 1.5,0 0.4125,0.07945 0.075,0.144457 -0.75,0.144457 -0.825,0 -1.1625,-0.06501 -0.75,-0.144457 z M 45.937501,55.438788 c 0.240623,-0.09629 0.528123,-0.08445 0.63889,0.0263 0.110763,0.110764 -0.08611,0.189547 -0.4375,0.175074 -0.388317,-0.016 -0.4673,-0.09498 -0.20139,-0.201387 z m 3.64972,-0.341383 c 0.414637,-0.07973 1.014637,-0.0767 1.333334,0.0067 0.318696,0.08343 -0.02057,0.148667 -0.753887,0.144967 -0.733334,-0.0037 -0.994084,-0.07196 -0.579447,-0.151694 z m 19.370261,-0.347404 c -0.414624,-0.528686 -0.402834,-0.540476 0.125853,-0.125853 0.55525,0.435457 0.731827,0.709187 0.45748,0.709187 -0.06922,0 -0.331717,-0.2625 -0.583333,-0.583334 z m 12.798863,0.019 c 0.324324,-0.08451 0.774324,-0.07896 1,0.01237 0.225677,0.09131 -0.03968,0.160457 -0.589676,0.153663 -0.55,-0.0068 -0.734647,-0.0815 -0.410324,-0.166013 z m -9.95468,-2.185666 -0.634997,-0.75 0.75,0.634996 c 0.704814,0.59674 0.901747,0.865004 0.634997,0.865004 -0.06325,0 -0.400753,-0.3375 -0.75,-0.75 z" style="fill:#97a3a7;stroke-width:0.333333"/><path id="path34" d="m 15.666667,85.554766 c 0,-0.255857 0.525627,-1.51586 1.168061,-2.800007 1.211855,-2.422357 4.829149,-6.583317 5.078965,-5.842314 0.213946,0.634607 -1.458031,4.034084 -2.909284,5.915177 -1.511838,1.959624 -3.337742,3.4515 -3.337742,2.727144 z m 13.333334,-9.126444 c -1.439357,-0.25487 -5.440932,-2.32876 -6.881535,-3.566483 -1.740828,-1.49567 -3.643463,-4.342364 -4.419413,-6.612261 -2.817503,-8.242076 1.529077,-17.070303 9.806752,-19.91824 2.359894,-0.811923 6.722672,-1.304027 6.360112,-0.717393 -0.131226,0.21233 -0.492243,0.387523 -0.802255,0.389313 -0.866515,0.005 -3.992724,1.551207 -5.416853,2.679137 -3.41536,2.705016 -6.158327,8.937083 -5.300678,12.04323 0.341035,1.235127 1.89955,2.893967 3.487203,3.71168 l 1,0.515043 -1.239294,0.523827 c -0.681611,0.288103 -1.485373,0.523827 -1.786136,0.523827 -1.256863,0 0.621902,3.74645 3.300601,6.581733 1.62613,1.721187 4.213163,3.261344 6.318639,3.761724 0.815183,0.193733 0.51245,0.25226 -1.260477,0.243696 -1.283333,-0.0062 -2.708333,-0.07768 -3.166666,-0.158833 z M 7.0000002,73.988005 c 1.9214447,-1.68691 4.6421128,-3.12755 7.1209348,-3.770666 l 1.954268,-0.50702 -0.787602,0.858953 c -1.316013,1.435237 -4.616287,3.402507 -6.8820025,4.102317 -2.9553317,0.91281 -3.1281894,0.828743 -1.4055983,-0.683584 z M 5.5498625,61.947268 C 2.3338368,61.545965 1.8051387,61.174992 3.6809511,60.635905 c 1.907494,-0.548193 6.7246549,-0.549963 8.6263159,-0.0033 1.799552,0.517433 1.367987,0.915846 -1.304396,1.2042 -1.0099124,0.10897 -2.1362041,0.242486 -2.5028708,0.2967 -0.3666667,0.05422 -1.6942287,-0.02963 -2.9501377,-0.186364 z M 13.104346,51.686885 c -2.553699,-0.919284 -4.9019611,-2.27967 -6.1400142,-3.557017 -1.287276,-1.328133 -0.92756,-1.425357 1.8006917,-0.486703 2.2416785,0.771253 4.2626795,1.93933 6.0683105,3.5073 1.580514,1.372486 1.050416,1.536946 -1.728988,0.53642 z m 6.672691,-8.12195 c -1.847456,-1.974937 -3.357921,-4.465321 -3.948563,-6.510211 -0.20127,-0.696823 -0.155128,-0.74127 0.439274,-0.423156 1.841827,0.985716 6.076081,7.503613 5.668651,8.725903 -0.06972,0.20917 -1.041437,-0.59747 -2.159362,-1.792536 z" style="fill:#fccc0a;stroke-width:0.333333"/><path id="path32" d="m 151.08968,71.102339 c 0.32432,-0.08451 0.77432,-0.07896 1,0.01237 0.22568,0.09131 -0.0397,0.160457 -0.58968,0.153664 -0.55,-0.0068 -0.73464,-0.0815 -0.41032,-0.166014 z m 11.32699,0.0013 c 0.32083,-0.08384 0.84583,-0.08384 1.16667,0 0.32083,0.08384 0.0583,0.152443 -0.58334,0.152443 -0.64166,0 -0.90416,-0.0686 -0.58333,-0.152443 z m 41.33333,0 c 0.32084,-0.08384 0.84584,-0.08384 1.16667,0 0.32083,0.08384 0.0583,0.152443 -0.58333,0.152443 -0.64167,0 -0.90417,-0.0686 -0.58334,-0.152443 z m 16.66667,0 c 0.32084,-0.08384 0.84584,-0.08384 1.16667,0 0.32083,0.08384 0.0583,0.152443 -0.58333,0.152443 -0.64167,0 -0.90417,-0.0686 -0.58334,-0.152443 z m 18.33334,0 c 0.32083,-0.08384 0.84583,-0.08384 1.16666,0 0.32084,0.08384 0.0583,0.152443 -0.58333,0.152443 -0.64167,0 -0.90417,-0.0686 -0.58333,-0.152443 z m 32.33333,0 c 0.32083,-0.08384 0.84583,-0.08384 1.16667,0 0.32083,0.08384 0.0583,0.152443 -0.58334,0.152443 -0.64166,0 -0.90416,-0.0686 -0.58333,-0.152443 z M 62.453501,68.000002 c 0,-1.741667 0.05618,-2.454167 0.124847,-1.583334 0.06867,0.870834 0.06867,2.295834 0,3.166667 -0.06867,0.870834 -0.124847,0.158334 -0.124847,-1.583333 z m 58.705369,-6.58321 0.008,-9.583457 1.83333,-0.0318 1.83334,-0.0318 -1.74492,0.132366 -1.74492,0.132367 -0.0962,9.48288 -0.0962,9.482881 0.008,-9.583457 z m 7.31651,2.416543 c 2.5e-4,-4.033333 0.0484,-5.63752 0.10697,-3.56486 0.0586,2.072663 0.0584,5.372663 -3.4e-4,7.333334 -0.0588,1.960673 -0.10675,0.26486 -0.1065,-3.768474 z m 10.98747,3 c 6.7e-4,-2.383333 0.0537,-3.314597 0.11799,-2.06947 0.0643,1.245123 0.0638,3.195124 -0.001,4.333334 -0.0649,1.138206 -0.11751,0.11947 -0.11693,-2.263864 z m 32.67966,-3.166667 c 0,-4.125 0.0479,-5.8125 0.10633,-3.75 0.0585,2.0625 0.0585,5.4375 0,7.5 -0.0585,2.062501 -0.10633,0.375001 -0.10633,-3.75 z m 39.98996,2.666667 c 0,-2.658333 0.0518,-3.745833 0.11504,-2.416667 0.0633,1.329167 0.0633,3.504167 0,4.833334 -0.0633,1.329167 -0.11504,0.241667 -0.11504,-2.416667 z m 14.01004,-2.666667 c 0,-4.125 0.0479,-5.8125 0.10633,-3.75 0.0585,2.0625 0.0585,5.4375 0,7.5 -0.0585,2.062501 -0.10633,0.375001 -0.10633,-3.75 z m 23.33288,0.166667 c 2.5e-4,-4.033333 0.0484,-5.63752 0.10696,-3.56486 0.0586,2.072663 0.0584,5.372663 -3.3e-4,7.333334 -0.0588,1.960673 -0.10676,0.26486 -0.10651,-3.768474 z m 10.98852,2.833333 c 0,-2.475 0.0525,-3.4875 0.11661,-2.25 0.0641,1.2375 0.0641,3.262501 0,4.500001 -0.0641,1.2375 -0.11661,0.225 -0.11661,-2.250001 z m 14.94483,3.140427 c 0.31647,-0.33041 0.64714,-0.528993 0.73484,-0.4413 0.0877,0.08769 -0.17124,0.358027 -0.5754,0.600744 -0.7021,0.42164 -0.70921,0.414536 -0.15944,-0.159444 z m -30.40873,-0.932946 c 0,-0.06922 0.2625,-0.331717 0.58333,-0.583334 0.52869,-0.414623 0.54048,-0.402833 0.12585,0.125854 -0.43545,0.55525 -0.70918,0.731826 -0.70918,0.45748 z m -23.72917,-0.435184 c 0.24062,-0.09629 0.52813,-0.08445 0.63889,0.0263 0.11076,0.110764 -0.0861,0.189547 -0.4375,0.175074 -0.38832,-0.016 -0.4673,-0.09498 -0.20139,-0.201387 z m 20.72917,-0.89815 c 0,-0.06922 0.2625,-0.331717 0.58333,-0.583333 0.52869,-0.414624 0.54048,-0.402834 0.12585,0.125853 -0.43545,0.55525 -0.70918,0.731827 -0.70918,0.45748 z m 24.06498,-0.70748 c 0.007,-0.55 0.0815,-0.734647 0.16601,-0.410323 0.0845,0.324323 0.079,0.774323 -0.0124,1 -0.0913,0.225677 -0.16046,-0.03968 -0.15367,-0.589677 z m -18.98765,-3.166667 c 0,-0.641666 0.0686,-0.904166 0.15244,-0.583333 0.0838,0.320833 0.0838,0.845833 0,1.166667 -0.0838,0.320833 -0.15244,0.05833 -0.15244,-0.583334 z m -3.38435,-0.527776 c 0.016,-0.388317 0.095,-0.4673 0.20139,-0.20139 0.0963,0.240623 0.0844,0.528123 -0.0263,0.63889 -0.11077,0.110763 -0.18955,-0.08611 -0.17508,-0.4375 z m -63.26432,-5.305557 c 0.003,-0.916667 0.0672,-1.252103 0.14386,-0.745417 0.0766,0.506687 0.0746,1.256687 -0.005,1.666667 -0.0791,0.40998 -0.14181,-0.0046 -0.13931,-0.92125 z m -26.71206,0.09997 -0.0499,-1.233364 -1.91667,-0.120273 -1.91666,-0.120273 1.92712,-0.06303 c 2.11229,-0.06908 2.3955,0.17164 2.14768,1.825483 -0.12068,0.805343 -0.14896,0.762747 -0.19153,-0.288543 z m 8.55423,0.838996 c 0.24062,-0.09629 0.52812,-0.08445 0.63889,0.0263 0.11076,0.110764 -0.0861,0.189547 -0.4375,0.175074 -0.38832,-0.016 -0.4673,-0.09498 -0.20139,-0.201387 z m 82.68665,-0.35563 c -0.41463,-0.528686 -0.40284,-0.540476 0.12585,-0.125853 0.55525,0.435457 0.73183,0.709187 0.45748,0.709187 -0.0692,0 -0.33172,-0.2625 -0.58333,-0.583334 z m -34.66667,-0.666666 c -0.41463,-0.528687 -0.40284,-0.540477 0.12585,-0.125854 0.55525,0.435457 0.73183,0.709187 0.45748,0.709187 -0.0692,0 -0.33172,-0.2625 -0.58333,-0.583333 z m -24.8925,-0.583334 c 0.007,-0.55 0.0815,-0.734646 0.16601,-0.410323 0.0845,0.324323 0.079,0.774323 -0.0124,1 -0.0913,0.225677 -0.16046,-0.03968 -0.15367,-0.589677 z m -40.47776,-0.735753 c 0.41463,-0.07973 1.01463,-0.0767 1.33333,0.0067 0.3187,0.08343 -0.0206,0.148667 -0.75389,0.144967 -0.73333,-0.0037 -0.99408,-0.07196 -0.57944,-0.151693 z m 69.33333,0 c 0.41464,-0.07973 1.01464,-0.0767 1.33333,0.0067 0.3187,0.08343 -0.0206,0.148667 -0.75388,0.144967 -0.73334,-0.0037 -0.99409,-0.07196 -0.57945,-0.151693 z m 5.99612,-0.0054 c 0.59583,-0.07394 1.57083,-0.07394 2.16666,0 0.59584,0.07394 0.10834,0.134443 -1.08333,0.134443 -1.19167,0 -1.67917,-0.0605 -1.08333,-0.134443 z M 109.91667,55.098091 c 0.4125,-0.07945 1.0875,-0.07945 1.5,0 0.4125,0.07945 0.075,0.144457 -0.75,0.144457 -0.825,0 -1.1625,-0.06501 -0.75,-0.144457 z m 117.6875,-1.325793 c 0.24063,-0.09629 0.52813,-0.08445 0.63889,0.0263 0.11077,0.110763 -0.0861,0.189547 -0.4375,0.175073 -0.38831,-0.016 -0.4673,-0.09498 -0.20139,-0.201386 z m -80.1875,-0.677713 c 0.50417,-0.07638 1.32917,-0.07638 1.83333,0 0.50417,0.07637 0.0917,0.138863 -0.91666,0.138863 -1.00834,0 -1.42084,-0.06249 -0.91667,-0.138863 z m 69.33333,0 c 0.50417,-0.07638 1.32917,-0.07638 1.83334,0 0.50417,0.07637 0.0917,0.138863 -0.91667,0.138863 -1.00833,0 -1.42083,-0.06249 -0.91667,-0.138863 z m 12.9693,-1.427917 c 0,-0.458333 0.0757,-0.645833 0.16813,-0.416667 0.0925,0.229167 0.0925,0.604167 0,0.833334 -0.0925,0.229166 -0.16813,0.04167 -0.16813,-0.416667 z" style="fill:#6692a5;stroke-width:0.333333"/><path id="path30" d="m 124.48047,61.500002 c 1.5e-4,-5.316667 0.0462,-7.444991 0.10227,-4.72961 0.0561,2.715383 0.056,7.065383 -2.9e-4,9.666666 -0.0562,2.601287 -0.10214,0.37961 -0.10198,-4.937056 z m 58.00932,2.333333 0.0102,-7.333333 1.5,-0.03665 1.5,-0.03665 -1.41022,0.13883 -1.41022,0.138834 -0.1,7.231146 -0.1,7.231151 0.0102,-7.333334 z m 10.97306,3 c 6.7e-4,-2.383333 0.0537,-3.314597 0.11799,-2.06947 0.0643,1.245123 0.0638,3.195124 -0.001,4.333334 -0.0649,1.138206 -0.11751,0.11947 -0.11693,-2.263864 z m 15.60214,3.333334 c 0.007,-0.55 0.0815,-0.734647 0.16601,-0.410324 0.0845,0.324324 0.079,0.774324 -0.0124,1 -0.0913,0.225677 -0.16045,-0.03968 -0.15366,-0.589676 z m 70.06918,-4.166667 c 0,-2.841667 0.0511,-4.004167 0.11361,-2.583334 0.0625,1.420834 0.0625,3.745834 0,5.166667 -0.0625,1.420834 -0.11361,0.258334 -0.11361,-2.583333 z m -79.17669,3.416667 c -0.41462,-0.528687 -0.40283,-0.540477 0.12586,-0.125854 0.55525,0.435457 0.73182,0.709187 0.45748,0.709187 -0.0692,0 -0.33172,-0.2625 -0.58334,-0.583333 z m 4.45919,-0.646444 c 0.32083,-0.08384 0.84583,-0.08384 1.16667,0 0.32083,0.08384 0.0583,0.152444 -0.58334,0.152444 -0.64166,0 -0.90416,-0.0686 -0.58333,-0.152444 z m 67.33334,0 c 0.32083,-0.08384 0.84583,-0.08384 1.16666,0 0.32084,0.08384 0.0583,0.152444 -0.58333,0.152444 -0.64167,0 -0.90417,-0.0686 -0.58333,-0.152444 z M 162.58334,68.445909 c 0.22916,-0.09247 0.60416,-0.09247 0.83333,0 0.22917,0.09247 0.0417,0.16813 -0.41667,0.16813 -0.45833,0 -0.64583,-0.07566 -0.41666,-0.16813 z m -3.44834,-1.529241 -0.635,-0.75 0.75,0.634997 c 0.4125,0.349247 0.75,0.686747 0.75,0.75 0,0.26675 -0.26826,0.06982 -0.865,-0.634997 z m 56.99226,-3.75 c 6.6e-4,-2.2 0.0546,-3.056623 0.11988,-1.903603 0.0653,1.153017 0.0647,2.953017 -0.001,4 -0.0659,1.04698 -0.11935,0.103603 -0.11869,-2.096397 z m -66.33334,-0.333333 c 6.7e-4,-2.2 0.0546,-3.056623 0.11989,-1.903603 0.0653,1.153016 0.0647,2.953016 -0.001,4 -0.0659,1.04698 -0.11934,0.103603 -0.11868,-2.096397 z m 81.95009,0.833333 c 0,-0.641666 0.0686,-0.904166 0.15244,-0.583333 0.0838,0.320833 0.0838,0.845833 0,1.166667 -0.0838,0.320833 -0.15244,0.05833 -0.15244,-0.583334 z M 176,60.874148 c 0,-0.06922 0.2625,-0.331716 0.58334,-0.583333 0.52868,-0.414623 0.54047,-0.402833 0.12585,0.125853 C 176.27373,60.971918 176,61.148495 176,60.874148 Z m 10.33334,-0.333333 c 0,-0.06922 0.2625,-0.331717 0.58333,-0.583333 0.52869,-0.414624 0.54048,-0.402834 0.12585,0.125853 -0.43545,0.55525 -0.70918,0.731827 -0.70918,0.45748 z m 88.62415,-0.790813 c -0.41463,-0.528687 -0.40284,-0.540477 0.12585,-0.125854 0.32083,0.251617 0.58333,0.514117 0.58333,0.583334 0,0.274346 -0.27373,0.09777 -0.70918,-0.45748 z M 167.29082,58.083335 c -0.41463,-0.528687 -0.40284,-0.540477 0.12585,-0.125853 0.32083,0.251616 0.58333,0.514116 0.58333,0.583333 0,0.274347 -0.27373,0.09777 -0.70918,-0.45748 z m 7.93141,0.36111 C 175.1,58.322225 175,57.880848 175,57.463612 c 0,-0.648437 -0.20575,-0.77882 -1.41666,-0.897757 l -1.41667,-0.139147 1.48805,0.03665 c 1.40109,0.0345 1.50091,0.09997 1.7079,1.11998 0.23129,1.139697 0.21824,1.219743 -0.14039,0.86111 z m 19.57944,-0.527777 -0.635,-0.75 0.75,0.634997 c 0.4125,0.349247 0.75,0.686747 0.75,0.75 0,0.26675 -0.26826,0.06982 -0.865,-0.634997 z m -9.46833,0.285664 c 0,-0.07205 0.23279,-0.220334 0.51731,-0.329517 0.29664,-0.11383 0.43044,-0.05795 0.31366,0.131003 -0.19575,0.316737 -0.83097,0.468484 -0.83097,0.198514 z m -55.91209,-1.774857 c 0.50669,-0.07662 1.25669,-0.07457 1.66667,0.0045 0.40998,0.07912 -0.005,0.141807 -0.92125,0.139307 -0.91667,-0.0027 -1.2521,-0.06724 -0.74542,-0.143857 z m 97.66667,0 c 0.50669,-0.07662 1.25669,-0.07457 1.66667,0.0045 0.40998,0.07912 -0.005,0.141807 -0.92125,0.139307 -0.91667,-0.0027 -1.2521,-0.06724 -0.74542,-0.143857 z m 23.33334,0 c 0.50668,-0.07662 1.25668,-0.07457 1.66666,0.0045 0.40998,0.07912 -0.005,0.141807 -0.92125,0.139307 -0.91666,-0.0027 -1.2521,-0.06724 -0.74541,-0.143857 z m -100.65925,-1.59414 c 0.003,-0.916667 0.0672,-1.252104 0.14385,-0.745417 0.0766,0.506687 0.0746,1.256687 -0.005,1.666667 -0.0791,0.40998 -0.14181,-0.0046 -0.13931,-0.92125 z m 66.33333,0 c 0.003,-0.916667 0.0672,-1.252104 0.14386,-0.745417 0.0766,0.506687 0.0746,1.256687 -0.005,1.666667 -0.0791,0.40998 -0.1418,-0.0046 -0.1393,-0.92125 z" style="fill:#457a92;stroke-width:0.333333"/><path id="path28" d="m 121.33334,61.500002 v -9.500001 h 1.5 1.5 v 9.500001 9.5 h -1.5 -1.5 z m 7.33333,2.333333 v -7.166667 h 1.5 c 1.3729,0 1.5,0.06976 1.5,0.823287 v 0.82329 l 1.18774,-0.806027 c 2.91039,-1.975043 7.18434,-1.299303 8.86341,1.40137 0.72171,1.160807 0.79084,1.67689 0.8942,6.674747 l 0.11201,5.416667 h -1.49811 -1.49811 l -0.1139,-4.992977 c -0.11284,-4.94609 -0.12259,-5.001647 -1.03815,-5.916667 -0.78412,-0.78365 -1.20007,-0.92369 -2.74359,-0.92369 -1.61007,0 -1.9447,0.125294 -2.90909,1.08924 l -1.08974,1.08924 -0.11459,4.827427 -0.11459,4.827427 h -1.46874 -1.46875 z m 20.10461,6.535934 c -1.67737,-1.053317 -1.89653,-1.780657 -2.04464,-6.785934 l -0.13562,-4.583333 h -1.12884 c -1.06788,0 -1.12884,-0.063 -1.12884,-1.166667 0,-1.11111 0.0556,-1.166667 1.16666,-1.166667 h 1.16667 v -1.666667 -1.666666 h 1.48174 1.48173 l 0.1016,1.583333 0.1016,1.583334 1.91666,0.09997 1.91667,0.09997 v 1.15003 1.150034 h -2.02719 -2.02718 l 0.11052,4.132736 c 0.0936,3.498597 0.20795,4.24024 0.74551,4.833334 0.66226,0.73068 2.01524,0.91161 2.85327,0.381567 0.37136,-0.234874 0.59286,-0.06007 0.92508,0.730033 0.58817,1.39885 0.20892,1.698447 -2.33094,1.841353 -1.64683,0.09266 -2.30455,-0.02233 -3.14446,-0.549756 z m 10.23387,-0.268997 c -3.67443,-1.935677 -4.93945,-6.14533 -2.98689,-9.939527 2.04929,-3.982173 7.81257,-5.044934 11.20511,-2.066243 1.49571,1.313253 2.4263,3.282746 2.43598,5.1555 l 0.007,1.416666 h -5.7028 -5.70281 l 0.21536,0.916667 c 0.63286,2.693824 4.79482,3.798144 7.71676,2.04754 l 1.02651,-0.61501 0.72784,0.984457 0.72785,0.98446 -1.35562,0.897107 c -1.09886,0.72719 -1.84152,0.924033 -3.92102,1.039286 -2.33188,0.129237 -2.73182,0.05451 -4.39359,-0.820903 z m 7.66152,-7.91792 c 0,-1.524117 -2.32172,-3.515684 -4.0985,-3.515684 -1.21792,0 -3.27544,1.111627 -3.74764,2.024764 -0.9933,1.920833 -0.89196,1.975236 3.67947,1.975236 3.42151,0 4.16667,-0.08661 4.16667,-0.484316 z m 5.66667,1.650983 v -7.166667 h 1.33333 c 1.1914,0 1.33333,0.08661 1.33333,0.81366 0,0.945074 0.51157,1.404647 0.78126,0.701854 0.24014,-0.625794 1.7537,-1.398064 3.3136,-1.6907 l 1.23848,-0.23234 v 1.537096 1.537097 h -1.1784 c -0.64811,0 -1.56858,0.25566 -2.04548,0.568133 -1.42184,0.931634 -1.77612,2.312177 -1.77612,6.92116 v 4.177374 h -1.5 -1.5 z m 10.33333,0 V 56.666668 H 184 c 1.2,0 1.33334,0.08333 1.33334,0.833334 0,1.022886 0.0237,1.023343 1.48964,0.02853 3.42873,-2.3268 8.36324,-0.8925 9.45395,2.74795 0.21769,0.726617 0.38974,3.380637 0.38974,6.01219 v 4.711327 h -1.46293 -1.46293 l -0.12449,-4.814367 c -0.10968,-4.24144 -0.20714,-4.925707 -0.81901,-5.75 -1.4621,-1.969693 -5.19164,-1.77827 -6.47867,0.332523 -0.56042,0.919114 -0.64965,1.69367 -0.65072,5.64851 l -0.001,4.583334 h -1.5 -1.5 z m 19.3335,6.80994 c -1.255,-0.527183 -2.27122,-1.61122 -2.68459,-2.86373 -0.3133,-0.94931 -0.26262,-1.34512 0.32858,-2.566383 0.39335,-0.812547 1.09771,-1.6369 1.61076,-1.885177 0.50146,-0.242663 2.44925,-0.507747 4.32842,-0.58907 C 208.95205,62.593132 209,62.579528 209,61.769888 c 0,-0.463163 -0.42479,-1.24596 -0.97436,-1.795526 -0.85543,-0.855434 -1.21299,-0.97436 -2.92952,-0.97436 -1.23935,0 -2.39495,0.22422 -3.15642,0.61244 l -1.20127,0.612443 -0.51807,-1.086407 c -0.6373,-1.33642 -0.44706,-1.531616 2.25568,-2.31455 3.5658,-1.03294 7.00859,-0.257623 8.65579,1.94929 0.63688,0.853297 0.71121,1.459767 0.80679,6.583334 l 0.10528,5.64345 h -1.35528 c -1.22341,0 -1.35528,-0.08108 -1.35528,-0.833333 0,-1.018114 -0.1005,-1.025437 -1.35401,-0.09867 -1.13443,0.83872 -4.56603,1.168887 -5.97916,0.57528 z m 4.56147,-1.99881 C 208.10332,68.060339 209,67.005202 209,65.775232 v -1.108564 l -2.75,0.0106 c -3.25352,0.01253 -3.91666,0.3679 -3.91666,2.098837 0,0.969154 0.17794,1.299144 0.91666,1.699907 1.10096,0.597277 2.05215,0.64566 3.31164,0.168453 z m 11.84079,1.81815 c -0.60367,-0.307823 -1.27867,-0.87534 -1.50001,-1.261146 -0.23506,-0.40975 -0.47173,-2.642191 -0.56908,-5.368134 l -0.16667,-4.666667 -1.25,-0.103456 c -1.17743,-0.09745 -1.25,-0.168847 -1.25,-1.229877 0,-1.06103 0.0726,-1.13243 1.25,-1.229877 1.23795,-0.10246 1.25098,-0.11872 1.3516,-1.68679 l 0.10159,-1.583333 h 1.48174 1.48174 v 1.666666 1.666667 h 2 2 v 1.166667 1.166667 h -2 -2 v 4.166666 c 0,3.794747 0.0628,4.229454 0.7034,4.870064 0.56984,0.56984 0.95053,0.663877 2.00498,0.495263 1.16659,-0.186543 1.34163,-0.120266 1.68757,0.63898 0.54542,1.197084 0.0165,1.59478 -2.30765,1.735214 -1.33294,0.08054 -2.25788,-0.05535 -3.01921,-0.443574 z m 7.93091,-6.62928 v -7.166667 h 1.5 1.5 v 7.166667 7.166667 h -1.5 -1.5 z m 9.83333,6.540387 c -2.72869,-1.25173 -4.16666,-3.50579 -4.16666,-6.531354 0,-3.578076 1.69799,-6.00824 4.90224,-7.016103 5.30517,-1.66868 10.11242,1.624807 10.09044,6.91303 -0.0127,3.053257 -1.73716,5.626077 -4.56531,6.81122 -1.53268,0.642274 -4.66821,0.55373 -6.26071,-0.176793 z m 5.99544,-2.76302 c 3.49524,-2.749354 1.68005,-8.616487 -2.6621,-8.60454 -1.73606,0.0048 -2.7967,0.567153 -3.7695,1.998696 -0.66526,0.97897 -0.76785,1.471047 -0.65191,3.126784 0.12295,1.75576 0.26754,2.08405 1.35794,3.083333 1.0684,0.979114 1.44362,1.11836 3.01362,1.11836 1.33484,0 2.02813,-0.184736 2.71195,-0.722633 z m 7.50456,-3.777367 v -7.166667 h 1.5 c 1.3729,0 1.5,0.06976 1.5,0.823287 v 0.82329 l 1.17112,-0.79474 c 3.14945,-2.13728 7.77532,-1.17671 9.17428,1.90505 0.54014,1.189887 0.6411,2.202667 0.64728,6.493113 l 0.007,5.083334 h -1.46942 -1.46943 l -0.11391,-4.992977 c -0.11283,-4.94609 -0.12258,-5.001647 -1.03815,-5.916667 -0.78412,-0.78365 -1.20007,-0.92369 -2.74359,-0.92369 -1.60983,0 -1.94484,0.125384 -2.90909,1.0888 l -1.08974,1.0888 -0.10792,4.827867 -0.10793,4.827867 h -1.47541 -1.47541 z m 19.16667,6.717224 c -1.55013,-0.712244 -2.24851,-1.717137 -2.4178,-3.478991 -0.13212,-1.375076 -0.0278,-1.7517 0.7367,-2.660293 1.11005,-1.319213 2.58365,-1.740373 6.09777,-1.742747 l 2.75,-0.0019 v -0.963073 c 0,-0.529687 -0.27769,-1.306003 -0.61709,-1.725143 -0.81229,-1.00313 -3.88142,-1.27179 -6.02623,-0.52751 -1.35928,0.471686 -1.51078,0.467506 -1.90607,-0.0526 -0.80888,-1.064303 -0.51872,-1.65026 1.13272,-2.28744 2.37794,-0.91749 6.186,-0.838677 7.93552,0.164237 2.21684,1.2708 2.30145,1.549016 2.42535,7.97486 l 0.11087,5.75 h -1.36087 c -1.22937,0 -1.36087,-0.08052 -1.36087,-0.833333 0,-1.018114 -0.1005,-1.025437 -1.35401,-0.09867 -1.23356,0.91201 -4.6308,1.17875 -6.14599,0.482564 z m 4.96499,-1.87058 c 1.39697,-0.531124 2.20168,-1.571571 2.20168,-2.846644 v -1.166667 h -2.5925 c -3.02074,0 -4.07417,0.508657 -4.07417,1.96724 0,1.815791 2.29933,2.869454 4.46499,2.046071 z m 8.86834,-7.846644 V 50.666668 h 1.66667 1.66667 v 10.166667 10.166667 h -1.66667 -1.66667 z m -56.55582,-8.03841 c -0.51158,-0.780784 -0.51998,-0.963387 -0.0805,-1.75 0.93057,-1.665597 3.63632,-1.211954 3.63632,0.609663 0,2.02171 -2.46116,2.810997 -3.55582,1.140337 z" style="fill:#326d87;stroke-width:0.333333"/><path id="path26" d="m 109.75,71.436892 c 0.32084,-0.08384 0.84584,-0.08384 1.16667,0 0.32083,0.08384 0.0583,0.152443 -0.58333,0.152443 -0.64167,0 -0.90417,-0.0686 -0.58334,-0.152443 z M 36.151124,70.913025 c -0.08871,-0.23117 -0.119183,-4.91867 -0.06772,-10.416667 l 0.09357,-9.996357 0.07818,10.231737 0.07818,10.231737 1.583334,0.124847 1.583333,0.124847 -1.593793,0.06008 c -1.022624,0.03855 -1.651597,-0.09054 -1.755084,-0.360227 z m 6.737767,0.198087 c -0.307993,-0.307993 -0.281147,-14.70192 0.02777,-14.893344 0.1375,-0.0852 0.207066,3.197507 0.15459,7.294904 l -0.09541,7.449817 1.59541,0.12534 1.59541,0.12534 -1.527777,0.06008 c -0.84028,0.03303 -1.62778,-0.03992 -1.75,-0.16214 z m 9.51868,-5.194444 0.07423,-5.416666 0.100806,5.232076 0.100804,5.232081 1.57496,0.124506 1.57496,0.124504 -1.75,0.06008 -1.75,0.06008 z m 6.743554,4.996357 c -0.08871,-0.23117 -0.119184,-4.91867 -0.06772,-10.416667 l 0.09357,-9.996357 0.07818,10.231737 0.07818,10.231737 1.583333,0.124847 1.583333,0.124847 -1.593793,0.06008 c -1.022623,0.03855 -1.651597,-0.09054 -1.755083,-0.360227 z m 37.603461,0.181117 c 0.506686,-0.07662 1.256686,-0.07457 1.666666,0.0045 0.40998,0.07912 -0.0046,0.141807 -0.92125,0.139307 -0.916666,-0.0027 -1.252103,-0.06724 -0.745416,-0.143857 z m -19.779814,-2.010807 -0.808104,-0.916666 0.916667,0.808103 c 0.856763,0.755297 1.06953,1.02523 0.808103,1.02523 -0.05971,0 -0.472206,-0.4125 -0.916666,-0.916667 z m 29.077858,-1.083333 c 0,-0.458333 0.0757,-0.645834 0.16813,-0.416667 0.0925,0.229167 0.0925,0.604167 0,0.833334 -0.0925,0.229166 -0.16813,0.04167 -0.16813,-0.416667 z m -23.448461,0.10563 c 0.240623,-0.09629 0.528123,-0.08445 0.63889,0.0263 0.110763,0.110763 -0.08611,0.189547 -0.4375,0.175073 -0.388317,-0.016 -0.4673,-0.09498 -0.20139,-0.201386 z m 8.729166,-0.231483 c 0,-0.06922 0.2625,-0.331717 0.583334,-0.583334 0.528686,-0.414623 0.540476,-0.402833 0.125853,0.125853 -0.435457,0.555251 -0.709187,0.731827 -0.709187,0.457481 z m 12.359655,-1.068591 c 0.016,-0.388316 0.095,-0.4673 0.20138,-0.20139 0.0963,0.240624 0.0845,0.528124 -0.0263,0.63889 -0.11076,0.110764 -0.18954,-0.08611 -0.17507,-0.4375 z M 67.937502,64.438965 c 0.240623,-0.09629 0.528123,-0.08445 0.63889,0.0263 0.110763,0.110763 -0.08611,0.189547 -0.4375,0.175073 -0.388317,-0.016 -0.4673,-0.09498 -0.20139,-0.201386 z m 24.01998,-2.022297 c -0.414623,-0.528686 -0.402833,-0.540476 0.125853,-0.125853 0.55525,0.435457 0.731827,0.709187 0.45748,0.709187 -0.06922,0 -0.331716,-0.2625 -0.583333,-0.583334 z M 63.575901,61.426092 c 0.591744,-0.07364 1.641744,-0.07485 2.333334,-0.0027 0.691587,0.07216 0.207433,0.132407 -1.0759,0.133887 -1.283334,0.0013 -1.84918,-0.05756 -1.257434,-0.131197 z m 30.783751,-1.953867 c 0.016,-0.388317 0.09498,-0.4673 0.201387,-0.20139 0.09629,0.240623 0.08445,0.528123 -0.0263,0.63889 -0.110763,0.110763 -0.189547,-0.08611 -0.175073,-0.4375 z m -9.89132,-0.555557 -0.634997,-0.75 0.75,0.634997 c 0.4125,0.349247 0.75,0.686747 0.75,0.75 0,0.26675 -0.268263,0.06982 -0.865003,-0.634997 z m 26.176828,-1.152206 c 1.22039,-0.124437 1.32683,-0.21854 1.45409,-1.28558 0.13587,-1.139224 0.13695,-1.138157 0.10237,0.10157 -0.0346,1.241233 -0.0482,1.253186 -1.45409,1.28558 l -1.41914,0.0327 1.31677,-0.134267 z m -18.645158,-0.55698 c 0,-0.06922 0.2625,-0.331717 0.583333,-0.583334 0.528687,-0.414623 0.540477,-0.402833 0.125854,0.125854 -0.435457,0.55525 -0.709187,0.731826 -0.709187,0.45748 z M 46.937501,55.438965 c 0.240623,-0.09629 0.528123,-0.08445 0.63889,0.0263 0.110763,0.110763 -0.08611,0.189547 -0.4375,0.175073 -0.388317,-0.016 -0.4673,-0.09498 -0.20139,-0.201386 z M 106.75,50.761251 c 0.50417,-0.07638 1.32917,-0.07638 1.83334,0 0.50416,0.07637 0.0917,0.138864 -0.91667,0.138864 -1.00833,0 -1.42083,-0.06249 -0.91667,-0.138864 z" style="fill:#5d5d5c;stroke-width:0.333333"/><path id="path24" d="m 80.500002,71.036172 c -1.558677,-0.395493 -2.347404,-0.918583 -3.611064,-2.39489 -2.101543,-2.45518 -2.449576,-6.74578 -0.80622,-9.939137 2.5655,-4.985247 9.680891,-4.93348 12.341257,0.08979 1.10961,2.095153 1.055214,6.447343 -0.108893,8.71206 -1.3884,2.70108 -4.8768,4.27773 -7.81508,3.53218 z m 4.07521,-3.83196 c 1.16237,-1.065234 1.239687,-1.26362 1.366393,-3.506 0.207487,-3.671984 -1.038186,-5.69821 -3.50311,-5.69821 -2.669636,0 -4.10516,1.836236 -4.10516,5.251083 0,4.324914 3.451167,6.51062 6.241877,3.953127 z m 23.196578,3.793463 c -1.4753,-0.594413 -1.58964,-1.32178 -1.71561,-10.91434 l -0.11929,-9.083334 h 1.69822 1.69823 v 2.166667 2.166667 h 1.33333 c 1.30159,0 1.33333,0.02777 1.33333,1.166667 0,1.13889 -0.0317,1.166666 -1.33333,1.166666 h -1.33333 v 5.1 c 0,5.509657 0.11467,5.900001 1.73333,5.900001 0.86667,0 0.93333,0.09524 0.93333,1.333333 v 1.333333 l -1.75,-0.02113 c -0.9625,-0.01163 -2.07769,-0.15316 -2.47821,-0.31453 z M 36.333334,60.833335 V 50.666668 h 1.5 1.5 v 10.166667 10.166667 h -1.5 -1.5 z m 6.743624,2.76347 0.08971,-7.403197 1.166666,-0.2531 c 0.641667,-0.139206 2.591667,-0.344603 4.333334,-0.45644 3.86336,-0.24808 5.07859,0.243437 6.25,2.527894 0.692453,1.350406 0.75,1.904793 0.75,7.225336 v 5.762704 h -1.471903 -1.471904 l -0.11143,-5.696084 -0.11143,-5.69608 -0.935253,-0.80392 c -0.965757,-0.830136 -2.00338,-0.972013 -4.314747,-0.589966 l -1.25,0.20661 v 6.28972 6.28972 h -1.506377 -1.506376 z m 16.256377,-2.76347 V 50.666668 h 3.816926 c 5.099694,0 6.889501,0.410797 8.489187,1.94844 3.104484,2.984077 2.405277,8.98535 -1.28399,11.020464 -1.176846,0.649186 -2.09016,0.834583 -4.739926,0.96218 l -3.282197,0.158046 v 3.122104 3.1221 h -1.5 -1.5 z m 8.366697,0.49627 c 1.716343,-0.476767 2.388186,-1.37834 2.558616,-3.4335 0.127784,-1.540903 0.034,-1.893303 -0.752633,-2.82817 -0.89394,-1.062384 -0.914913,-1.067934 -4.035643,-1.067934 h -3.137037 v 3.611111 c 0,1.986113 0.1,3.711113 0.222223,3.833333 0.33848,0.338483 3.789894,0.261437 5.144474,-0.11484 z m 25.466637,8.886854 c -2.49643,-1.163884 -2.696057,-1.559964 -1.334007,-2.646767 l 1.131857,-0.903134 1.56739,0.833391 c 2.793517,1.485326 6.134761,0.75238 6.134761,-1.345747 0,-1.034274 -0.54833,-1.29908 -4.166668,-2.01225 -2.552013,-0.502997 -3.167987,-0.758087 -4.124947,-1.708237 -1.052293,-1.044803 -1.114266,-1.228097 -0.959576,-2.837987 0.138276,-1.439086 0.359143,-1.898623 1.348163,-2.80499 2.525324,-2.31429 6.947444,-2.290933 10.049278,0.05308 0.62988,0.47599 0.62228,0.513383 -0.3,1.476037 l -0.94625,0.987673 -0.90176,-0.642107 c -1.693611,-1.20596 -4.671078,-1.278293 -5.808264,-0.141106 -1.328211,1.328206 -0.286744,2.27543 3.077196,2.79873 3.423548,0.532576 5.099888,1.459403 5.646988,3.122153 0.79661,2.42102 -0.32764,4.88417 -2.755,6.036027 -1.729178,0.820547 -5.619728,0.68606 -7.659161,-0.264763 z" style="fill:#1d1d1b;stroke-width:0.333333"/></g></g></svg>