<?xml version="1.0" encoding="utf-8"?>
<svg version="1.1" id="Layer_1" xmlns="http://www.w3.org/2000/svg" xmlns:xlink="http://www.w3.org/1999/xlink" x="0px" y="0px"
	 viewBox="0 0 193.7 78" style="enable-background:new 0 0 193.7 78;" xml:space="preserve">
<style type="text/css">
	.Arched_x0020_Green{fill:url(#SVGID_1_);stroke:#FFFFFF;stroke-width:0.25;stroke-miterlimit:1;}
	.st0{enable-background:new    ;}
	.st1{fill:#7ECEEA;}
	.st2{fill:#7ECEEA;stroke:#7ECEEA;stroke-width:0.25;stroke-miterlimit:10;}
	.st3{fill:none;stroke:#7ECEEA;stroke-width:4;stroke-miterlimit:10;}
	.st4{fill:#08C2EE;}
	.st5{fill:none;stroke:#08C2EE;stroke-width:4;stroke-miterlimit:10;}
</style>
<linearGradient id="SVGID_1_" gradientUnits="userSpaceOnUse" x1="-18.3599" y1="105.0103" x2="-17.6528" y2="104.3032">
	<stop  offset="0" style="stop-color:#20AC4B"/>
	<stop  offset="0.9831" style="stop-color:#19361A"/>
</linearGradient>
<g>
	<g class="st0">
		<path class="st1" d="M118.9,12.7c3.9,0,7.1,1.3,9.7,3.9c2.6,2.6,3.9,5.8,3.9,9.6c0,3.8-1.3,6.9-3.9,9.5c-2.6,2.6-5.8,3.9-9.5,3.9
			c-3.8,0-7-1.3-9.6-3.9c-2.6-2.6-3.9-5.7-3.9-9.4c0-2.5,0.6-4.7,1.8-6.8c1.2-2.1,2.8-3.7,4.9-4.9C114.3,13.3,116.5,12.7,118.9,12.7
			z M119,15.2c-1.9,0-3.7,0.5-5.4,1.5c-1.7,1-3,2.3-4,4c-1,1.7-1.4,3.5-1.4,5.6c0,3,1.1,5.6,3.2,7.7c2.1,2.1,4.7,3.1,7.6,3.1
			c2,0,3.8-0.5,5.5-1.4c1.7-1,3-2.3,4-4c0.9-1.7,1.4-3.5,1.4-5.6c0-2-0.5-3.9-1.4-5.5c-0.9-1.6-2.3-3-4-3.9
			C122.8,15.7,121,15.2,119,15.2z"/>
		<path class="st1" d="M137.7,13.3h2.6v23.1h9.9v2.5h-12.4V13.3z"/>
		<path class="st1" d="M153.2,15.8v-2.5h13.5L156,36.4h10.2v2.5H152l10.8-23.1H153.2z"/>
		<path class="st1" d="M181.8,13.3l11.9,25.6H191l-4-8.4h-11l-4,8.4H169l12.1-25.6H181.8z M181.5,18.8l-4.4,9.3h8.8L181.5,18.8z"/>
	</g>
	<g class="st0">
		<path class="st1" d="M123.8,48.5h1.2v13.1h-1.2V48.5z"/>
		<path class="st1" d="M132.1,51.9c1.5,0,2.7,0.5,3.6,1.6c0.9,1,1.3,2.1,1.3,3.4c0,1.3-0.5,2.5-1.4,3.5c-0.9,1-2.1,1.5-3.6,1.5
			c-1.5,0-2.6-0.5-3.6-1.5c-0.9-1-1.4-2.1-1.4-3.5c0-1.3,0.4-2.5,1.3-3.4C129.4,52.4,130.6,51.9,132.1,51.9z M132.1,53.1
			c-1,0-1.9,0.4-2.6,1.1c-0.7,0.7-1.1,1.7-1.1,2.7c0,0.7,0.2,1.3,0.5,1.9c0.3,0.6,0.8,1.1,1.3,1.4c0.6,0.3,1.2,0.5,1.9,0.5
			c0.7,0,1.3-0.2,1.9-0.5c0.6-0.3,1-0.8,1.3-1.4c0.3-0.6,0.5-1.2,0.5-1.9c0-1.1-0.4-2-1.1-2.7C134,53.4,133.1,53.1,132.1,53.1z"/>
		<path class="st1" d="M147.4,52.1h1.2v7.6c0,1.3-0.1,2.3-0.3,2.9c-0.3,0.9-0.9,1.5-1.7,2c-0.8,0.5-1.7,0.7-2.8,0.7
			c-0.8,0-1.5-0.1-2.2-0.3c-0.6-0.2-1.2-0.5-1.6-0.9c-0.4-0.4-0.8-1-1.1-1.7h1.3c0.4,0.6,0.8,1.1,1.4,1.4c0.6,0.3,1.3,0.5,2.1,0.5
			c0.8,0,1.5-0.2,2.1-0.5c0.6-0.3,1-0.7,1.2-1.2c0.2-0.5,0.4-1.2,0.4-2.3v-0.5c-0.5,0.6-1,1-1.7,1.3c-0.7,0.3-1.4,0.5-2.1,0.5
			c-0.9,0-1.7-0.2-2.5-0.6c-0.8-0.4-1.4-1-1.8-1.7c-0.4-0.7-0.6-1.5-0.6-2.4c0-0.9,0.2-1.7,0.7-2.5c0.4-0.8,1-1.4,1.8-1.8
			c0.8-0.4,1.6-0.7,2.4-0.7c0.7,0,1.4,0.1,2,0.4c0.6,0.3,1.2,0.8,1.8,1.4V52.1z M143.8,53.1c-0.7,0-1.3,0.2-1.9,0.5
			c-0.6,0.3-1.1,0.8-1.4,1.4c-0.3,0.6-0.5,1.2-0.5,1.9c0,1,0.3,1.9,1,2.6c0.7,0.7,1.6,1,2.7,1c1.1,0,2-0.3,2.7-1
			c0.7-0.7,1-1.6,1-2.7c0-0.7-0.2-1.4-0.5-1.9c-0.3-0.6-0.8-1-1.3-1.3C145.1,53.2,144.5,53.1,143.8,53.1z"/>
		<path class="st1" d="M151.7,48.2c0.3,0,0.5,0.1,0.7,0.3c0.2,0.2,0.3,0.4,0.3,0.7c0,0.3-0.1,0.5-0.3,0.7c-0.2,0.2-0.4,0.3-0.7,0.3
			c-0.3,0-0.5-0.1-0.7-0.3c-0.2-0.2-0.3-0.4-0.3-0.7c0-0.3,0.1-0.5,0.3-0.7C151.2,48.3,151.4,48.2,151.7,48.2z M151.1,52.1h1.2v9.5
			h-1.2V52.1z"/>
		<path class="st1" d="M159.6,53.2l-0.8,0.8c-0.7-0.6-1.3-1-1.9-1c-0.4,0-0.7,0.1-1,0.4c-0.3,0.3-0.4,0.6-0.4,0.9
			c0,0.3,0.1,0.6,0.4,0.9c0.2,0.3,0.7,0.6,1.5,1c0.9,0.5,1.5,0.9,1.8,1.4c0.3,0.4,0.5,0.9,0.5,1.5c0,0.8-0.3,1.4-0.8,2
			c-0.5,0.5-1.2,0.8-2,0.8c-0.5,0-1.1-0.1-1.6-0.4c-0.5-0.2-0.9-0.6-1.2-1l0.8-0.9c0.6,0.7,1.3,1.1,2,1.1c0.5,0,0.9-0.2,1.2-0.5
			c0.3-0.3,0.5-0.7,0.5-1.1c0-0.3-0.1-0.7-0.3-0.9c-0.2-0.3-0.7-0.6-1.5-1c-0.9-0.4-1.4-0.9-1.7-1.3c-0.3-0.4-0.5-0.9-0.5-1.5
			c0-0.7,0.2-1.3,0.7-1.8c0.5-0.5,1.1-0.7,1.9-0.7C157.8,51.9,158.7,52.3,159.6,53.2z"/>
		<path class="st1" d="M162.8,48.6h1.2v3.5h1.9v1.1h-1.9v8.4h-1.2v-8.4h-1.7v-1.1h1.7V48.6z"/>
		<path class="st1" d="M168.2,48.2c0.3,0,0.5,0.1,0.7,0.3c0.2,0.2,0.3,0.4,0.3,0.7c0,0.3-0.1,0.5-0.3,0.7c-0.2,0.2-0.4,0.3-0.7,0.3
			c-0.3,0-0.5-0.1-0.7-0.3c-0.2-0.2-0.3-0.4-0.3-0.7c0-0.3,0.1-0.5,0.3-0.7C167.7,48.3,168,48.2,168.2,48.2z M167.6,52.1h1.2v9.5
			h-1.2V52.1z"/>
		<path class="st1" d="M180.6,54.1l-1,0.6c-0.8-1.1-2-1.7-3.4-1.7c-1.2,0-2.1,0.4-2.9,1.1c-0.8,0.7-1.1,1.6-1.1,2.7
			c0,0.7,0.2,1.3,0.5,1.9c0.3,0.6,0.8,1.1,1.4,1.4c0.6,0.3,1.3,0.5,2.1,0.5c1.4,0,2.5-0.6,3.4-1.7l1,0.6c-0.5,0.7-1.1,1.2-1.8,1.6
			c-0.8,0.4-1.6,0.6-2.6,0.6c-1.5,0-2.7-0.5-3.7-1.4c-1-1-1.5-2.1-1.5-3.5c0-0.9,0.2-1.8,0.7-2.6c0.5-0.8,1.1-1.4,1.9-1.8
			c0.8-0.4,1.7-0.7,2.7-0.7c0.6,0,1.2,0.1,1.8,0.3c0.6,0.2,1.1,0.4,1.5,0.7C180,53.2,180.3,53.6,180.6,54.1z"/>
	</g>
	<path class="st2" d="M3.5,40.1c0,0,46.6-17,89.4-22.6c0,0-74,22.6-85.3,38.1C7.7,55.5,2,47,3.5,40.1z"/>
	<ellipse transform="matrix(0.9946 -0.1034 0.1034 0.9946 -3.8233 4.2415)" class="st3" cx="39" cy="39" rx="37" ry="37"/>
	<path class="st4" d="M10.5,59c0,0,34.6-24.6,82.5-41.6c0,0-61.4,31.8-71.8,52.2C21.1,69.7,9.2,62.7,10.5,59z"/>
	<path class="st5" d="M6.8,57c10,17.8,32.4,24.2,50.3,14.4c15.9-8.7,22.8-27.6,16.8-44.8"/>
</g>
</svg>
