<svg xmlns="http://www.w3.org/2000/svg" xmlns:xlink="http://www.w3.org/1999/xlink" id="Layer_1" x="0px" y="0px" width="503.154px" height="399.563px" viewBox="-30.443 -26.281 503.154 399.563" xml:space="preserve"><g>	<polygon fill="#FFFFFF" points="266.16,180.044 342.471,225.387 421.08,178.704 353.745,149.51  "></polygon>	<polygon fill="#CEDFFF" points="472.711,103.934 252.771,-25.566 190.629,11.072 127.188,-26.281 -15.745,57.993 48.498,94.875   -30.443,141.418 60.066,193.38 6.546,225.192 62.281,257.189 115.8,225.377 169.491,256.2 114.503,288.623 61.121,257.189   3.168,291.18 58.042,322.681 114.779,289.41 260.872,373.281 445.853,264.215 323.273,192.043  "></polygon>	<polygon fill="#FFFFFF" points="266.16,180.044 342.471,225.387 421.08,178.704 392.407,166.169 279.237,174.062  "></polygon>	<g>		<path fill="#2B3859" d="M247.009,60.27c0,0,10.275,36.814,7.188,73.025c0,0,8.023,10.3,12.538,8.463c0,0,0.435-0.562-5.869-9.793   c0,0,0.473-4.156,0.699-7.192c0,0,2.436-36.24,3.486-48.551c0,0,2.218,20.155,4.897,48.551c0,0,4.418,5.661,7.711,6.579   c0,0,4.088,1.705,5.978-1.371c0,0-8.294-4.945-7.798-10.626c0,0,4.215-45.826,2.321-65.949   C278.16,53.404,251.007,37.069,247.009,60.27z"></path>		<path fill="#F7BA44" d="M258.979-2.55c0,0,1.521-1.66,1.246-3.735l-1.494-2.551c0,0-1.482-3.121,1.527-3.396   c0,0,0.798-0.276,1.21-1.383c0,0,8.302,4.15,9.824,1.659c0,0-0.97,7.055-4.427,7.748c0,0-0.554,4.012,0.555,4.842   C267.421,0.631,266.866,6.856,258.979-2.55z"></path>					<linearGradient id="SVGID_1_" gradientUnits="userSpaceOnUse" x1="125.1138" y1="268.0615" x2="165.0693" y2="268.0615" gradientTransform="matrix(1 0 0 1 118.0801 -237.8672)">			<stop offset="0" style="stop-color:#4486FC"></stop>			<stop offset="1" style="stop-color:#2AA3E7"></stop>		</linearGradient>		<path fill="url(#SVGID_1_)" d="M258.507-3.48c0,0-26.286,31.112-9.979,47.077c0,0-6.042,22.491-1.621,19.649l4.261-9.724   c0,0,1.578,12.668,5.053,9.971l23.002-3.498l1.148-26.362c0,0,5.809-2.096,0.632-21.312c-0.688-2.555-11.974-15.666-13.732-13.687   C264.59,1.639,260.976,0.291,258.507-3.48z"></path>		<path fill="#172033" d="M258.731-20.258c0,0,10.824-8.241,15.828,2.651c0.036,0.079,0.059,0.161,0.063,0.246   c0.057,1.207,0.075,10.255-12.571,4.034c-0.299-0.147-0.667-0.051-0.83,0.239c-0.273,0.484-0.781,1.174-1.582,1.493   c-0.38,0.152-1.647,1.262-0.411,2.19c0.998,0.75,1.803,1.711,1.123,3.653c-0.064,0.185-0.219,0.325-0.406,0.386   c-0.913,0.296-3.605,0.688-3.866-4.826c-0.002-0.067-0.019-0.135-0.042-0.197C255.732-11.183,253.748-16.915,258.731-20.258z"></path>		<path fill="#0261AF" d="M254.017,18.16c0,0-1.589,14.05,2.046,13.733l11.207-7.418c0,0-8.613-4.104-9.438-11.208   C257.829,13.267,254.326,13.729,254.017,18.16z"></path>		<polygon fill="#33312F" points="274.896,12.937 269.056,34.507 284.032,25.35 290.762,3.698   "></polygon>		<path fill="#FFFFFF" d="M278.267,11.22c0,0,0-3.644,4.65-6.206c0,0,4.648-2.247,4.648,0.792L278.267,11.22z"></path>					<linearGradient id="SVGID_2_" gradientUnits="userSpaceOnUse" x1="148.0449" y1="352.2207" x2="118.4197" y2="394.3196" gradientTransform="matrix(1 0 0 1 118.0801 -237.8672)">			<stop offset="0" style="stop-color:#000C42;stop-opacity:0.6"></stop>			<stop offset="0.4089" style="stop-color:#050668;stop-opacity:0.3547"></stop>			<stop offset="0.7848" style="stop-color:#090285;stop-opacity:0.1291"></stop>			<stop offset="1" style="stop-color:#0B0090;stop-opacity:0"></stop>		</linearGradient>		<polygon fill="url(#SVGID_2_)" points="211.188,151.683 269.948,124.771 283.187,130.846 228.908,166.169   "></polygon>		<path fill="#F7BA44" d="M267.269,24.475c0,0,2.488-3.113,3.6-4.805c0.139-0.213,0.26-0.403,0.345-0.563   c0.792-1.42,1.422,2.999,0.949,3.946c0,0,5.84-1.262,6.474-3.315c0,0,3.787,7.419-7.893,7.893L267.269,24.475z"></path>		<path fill="#0261AF" d="M248.522,43.595c0,0,7.355,7.56,15.598-2.194c0,0,4.396,12.5-16.965,7.762L248.522,43.595z"></path>	</g>	<g>					<linearGradient id="SVGID_3_" gradientUnits="userSpaceOnUse" x1="33.6108" y1="382.1104" x2="0.4349" y2="411.6" gradientTransform="matrix(1 0 0 1 118.0801 -237.8672)">			<stop offset="0" style="stop-color:#000C42;stop-opacity:0.6"></stop>			<stop offset="0.0788" style="stop-color:#020A4D;stop-opacity:0.5527"></stop>			<stop offset="0.3148" style="stop-color:#06066A;stop-opacity:0.4111"></stop>			<stop offset="0.5493" style="stop-color:#09037F;stop-opacity:0.2704"></stop>			<stop offset="0.7794" style="stop-color:#0A018C;stop-opacity:0.1324"></stop>			<stop offset="1" style="stop-color:#0B0090;stop-opacity:0"></stop>		</linearGradient>		<polyline fill="url(#SVGID_3_)" points="92.725,158.785 130.278,136.955 173.414,162.808 128.786,189.055   "></polyline>		<g>			<g>				<polygon fill="#FFF3E1" points="130.927,78.272 130.927,128.491 174.483,102.972 174.483,52.742     "></polygon>				<polygon fill="#F4BA44" points="87.136,52.742 87.536,101.725 130.927,128.491 130.927,78.272     "></polygon>				<polygon fill="#FFFFFF" points="87.136,52.742 130.927,26.939 174.483,52.742 130.927,78.272     "></polygon>			</g>			<polygon fill="#F7E9C9" points="146.228,54.553 137.938,59.441 150.549,66.821 158.503,62.048    "></polygon>			<polyline fill="#F9C778" points="150.549,80.986 150.549,66.709 158.503,61.937 158.503,76.226    "></polyline>		</g>		<g>			<g>				<polygon fill="#EFDABF" points="65.15,109.514 65.15,159.731 108.707,134.212 108.707,83.983     "></polygon>				<polygon fill="#F9C778" points="21.356,83.983 21.757,132.966 65.15,159.731 65.15,109.514     "></polygon>				<polygon fill="#FFFFFF" points="21.356,83.983 65.15,58.181 108.707,83.983 65.15,109.514     "></polygon>			</g>			<polygon fill="#C9DCFC" points="80.45,85.795 72.161,90.683 84.771,98.062 92.725,93.29    "></polygon>		</g>		<g>			<g>				<polygon fill="#A9C3EA" points="174.602,112.786 174.602,163.004 218.157,137.483 218.157,87.254     "></polygon>				<polygon fill="#4486FB" points="130.809,87.254 131.21,136.238 174.602,163.004 174.602,112.786     "></polygon>				<polygon fill="#FFFFFF" points="130.809,87.254 174.602,61.452 218.157,87.254 174.602,112.786     "></polygon>			</g>			<polygon fill="#4486FB" points="180.697,67.002 165.84,75.494 174.304,80.429 188.827,72.054    "></polygon>		</g>		<g>			<g>				<polygon fill="#FFF3E1" points="123.798,143.559 123.798,193.777 167.354,168.258 167.354,118.028     "></polygon>				<polygon fill="#F9C778" points="80.005,118.028 80.406,167.013 123.798,193.777 123.798,143.559     "></polygon>				<polygon fill="#FFFFFF" points="80.005,118.028 123.798,92.226 167.354,118.028 123.798,143.559     "></polygon>			</g>			<polygon fill="#F7E9C9" points="139.098,119.839 130.809,124.728 143.418,132.107 151.374,127.333    "></polygon>			<polyline fill="#F9C778" points="143.418,146.272 143.418,131.996 151.374,127.225 151.374,141.512    "></polyline>		</g>		<g>			<g>				<polygon fill="#A9C3EA" points="105.671,65.405 105.671,115.622 149.227,90.103 149.227,39.872     "></polygon>				<polygon fill="#4486FB" points="61.878,39.872 62.279,88.857 105.671,115.622 105.671,65.405     "></polygon>				<polygon fill="#FFFFFF" points="61.878,39.872 105.671,14.07 149.227,39.872 105.671,65.405     "></polygon>			</g>			<polygon fill="#4486FB" points="111.766,19.62 96.909,28.112 105.374,33.047 119.896,24.672    "></polygon>		</g>					<linearGradient id="SVGID_4_" gradientUnits="userSpaceOnUse" x1="-74.6519" y1="379.0352" x2="-107.8273" y2="408.5244" gradientTransform="matrix(1 0 0 1 118.0801 -237.8672)">			<stop offset="0" style="stop-color:#000C42;stop-opacity:0.6"></stop>			<stop offset="0.0788" style="stop-color:#020A4D;stop-opacity:0.5527"></stop>			<stop offset="0.3148" style="stop-color:#06066A;stop-opacity:0.4111"></stop>			<stop offset="0.5493" style="stop-color:#09037F;stop-opacity:0.2704"></stop>			<stop offset="0.7794" style="stop-color:#0A018C;stop-opacity:0.1324"></stop>			<stop offset="1" style="stop-color:#0B0090;stop-opacity:0"></stop>		</linearGradient>		<polyline fill="url(#SVGID_4_)" points="-15.538,155.71 22.014,133.879 65.15,159.731 20.522,185.979   "></polyline>					<linearGradient id="SVGID_5_" gradientUnits="userSpaceOnUse" x1="-15.6846" y1="412.8828" x2="-48.8612" y2="442.3731" gradientTransform="matrix(1 0 0 1 118.0801 -237.8672)">			<stop offset="0" style="stop-color:#000C42;stop-opacity:0.6"></stop>			<stop offset="0.0788" style="stop-color:#020A4D;stop-opacity:0.5527"></stop>			<stop offset="0.3148" style="stop-color:#06066A;stop-opacity:0.4111"></stop>			<stop offset="0.5493" style="stop-color:#09037F;stop-opacity:0.2704"></stop>			<stop offset="0.7794" style="stop-color:#0A018C;stop-opacity:0.1324"></stop>			<stop offset="1" style="stop-color:#0B0090;stop-opacity:0"></stop>		</linearGradient>		<polyline fill="url(#SVGID_5_)" points="43.429,189.558 80.983,167.727 124.12,193.579 79.492,219.826   "></polyline>					<linearGradient id="SVGID_6_" gradientUnits="userSpaceOnUse" x1="-31.5923" y1="335.29" x2="-50.6848" y2="352.2611" gradientTransform="matrix(1 0 0 1 118.0801 -237.8672)">			<stop offset="0" style="stop-color:#000C42;stop-opacity:0.6"></stop>			<stop offset="0.0788" style="stop-color:#020A4D;stop-opacity:0.5527"></stop>			<stop offset="0.3148" style="stop-color:#06066A;stop-opacity:0.4111"></stop>			<stop offset="0.5493" style="stop-color:#09037F;stop-opacity:0.2704"></stop>			<stop offset="0.7794" style="stop-color:#0A018C;stop-opacity:0.1324"></stop>			<stop offset="1" style="stop-color:#0B0090;stop-opacity:0"></stop>		</linearGradient>		<polyline fill="url(#SVGID_6_)" points="46.353,98.275 45.872,98.275 62.24,88.759 105.671,115.622 91.498,124.62 91.498,124.62      "></polyline>	</g>			<linearGradient id="SVGID_7_" gradientUnits="userSpaceOnUse" x1="189.9453" y1="432.666" x2="183.2868" y2="444.1989" gradientTransform="matrix(1 0 0 1 118.0801 -237.8672)">		<stop offset="0" style="stop-color:#000C42;stop-opacity:0.6"></stop>		<stop offset="0.1978" style="stop-color:#010B4A;stop-opacity:0.4813"></stop>		<stop offset="0.5023" style="stop-color:#04075F;stop-opacity:0.2986"></stop>		<stop offset="0.8738" style="stop-color:#090282;stop-opacity:0.0757"></stop>		<stop offset="1" style="stop-color:#0B0090;stop-opacity:0"></stop>	</linearGradient>	<polyline fill="url(#SVGID_7_)" points="264.501,187.208 280.601,177.613 343.466,216.391 328.619,225.305  "></polyline>			<linearGradient id="SVGID_8_" gradientUnits="userSpaceOnUse" x1="183.6089" y1="435.4102" x2="103.9501" y2="506.2178" gradientTransform="matrix(1 0 0 1 118.0801 -237.8672)">		<stop offset="0" style="stop-color:#000C42;stop-opacity:0.6"></stop>		<stop offset="0.0788" style="stop-color:#020A4D;stop-opacity:0.5527"></stop>		<stop offset="0.3148" style="stop-color:#06066A;stop-opacity:0.4111"></stop>		<stop offset="0.5493" style="stop-color:#09037F;stop-opacity:0.2704"></stop>		<stop offset="0.7794" style="stop-color:#0A018C;stop-opacity:0.1324"></stop>		<stop offset="1" style="stop-color:#0B0090;stop-opacity:0"></stop>	</linearGradient>	<polyline fill="url(#SVGID_8_)" points="169.006,242.467 267.011,187.813 344.95,232.107 239.869,291.18  "></polyline>	<g>		<g>			<g>				<polygon fill="#FFF3E1" points="343.466,142.741 343.466,216.391 407.342,178.965 407.342,105.297     "></polygon>				<polygon fill="#F9C778" points="279.237,105.297 279.826,177.136 343.466,216.391 343.466,142.741     "></polygon>				<polygon fill="#FFFFFF" points="279.237,105.297 343.466,67.457 407.342,105.297 343.466,142.741     "></polygon>			</g>			<polygon fill="#F7E9C9" points="365.899,107.953 353.745,115.123 372.239,125.945 383.905,118.947    "></polygon>			<polyline fill="#F9C778" points="372.239,146.721 372.239,125.783 383.905,118.783 383.905,139.74    "></polyline>		</g>					<linearGradient id="SVGID_9_" gradientUnits="userSpaceOnUse" x1="271.6914" y1="646.0186" x2="169.9868" y2="151.6871" gradientTransform="matrix(1 0 0 1 118.0801 -237.8672)">			<stop offset="0" style="stop-color:#4486FC"></stop>			<stop offset="1" style="stop-color:#01C1D0"></stop>		</linearGradient>		<polygon fill="url(#SVGID_9_)" points="342.471,225.387 266.16,180.044 266.16,188.964 342.471,233.81 421.08,187.067    421.08,178.704   "></polygon>		<g>			<polygon fill="#4486FB" points="352.349,72.418 288.348,110.531 276.205,186.137 281.476,189.302 293.396,113.474     357.372,75.593    "></polygon>			<polygon fill="#0261AF" points="276.205,186.137 276.205,194.858 281.476,198.027 281.476,189.302    "></polygon>		</g>		<g>			<polygon fill="#4486FB" points="384.81,91.068 320.807,129.18 308.661,204.786 313.931,207.95 325.853,132.124 389.83,94.242        "></polygon>			<polygon fill="#0261AF" points="308.661,204.786 308.661,213.508 313.931,216.676 313.931,207.95    "></polygon>		</g>	</g>	<g>					<linearGradient id="SVGID_10_" gradientUnits="userSpaceOnUse" x1="151.562" y1="538.7197" x2="116.0784" y2="570.2607" gradientTransform="matrix(1 0 0 1 118.0801 -237.8672)">			<stop offset="0" style="stop-color:#000C42;stop-opacity:0.6"></stop>			<stop offset="0.0788" style="stop-color:#020A4D;stop-opacity:0.5527"></stop>			<stop offset="0.3148" style="stop-color:#06066A;stop-opacity:0.4111"></stop>			<stop offset="0.5493" style="stop-color:#09037F;stop-opacity:0.2704"></stop>			<stop offset="0.7794" style="stop-color:#0A018C;stop-opacity:0.1324"></stop>			<stop offset="1" style="stop-color:#0B0090;stop-opacity:0"></stop>		</linearGradient>		<polyline fill="url(#SVGID_10_)" points="204.45,314.016 242.003,292.187 294.999,323.1 250.371,349.349   "></polyline>		<polygon fill="#A9C3EA" points="294.999,323.1 348.673,292.187 348.673,263.368 294.999,294.533   "></polygon>		<polygon fill="#FFFFFF" points="294.999,232.491 348.673,263.368 294.999,294.533 241.328,263.513   "></polygon>		<polygon fill="#4486FB" points="241.328,291.996 241.328,263.513 294.999,294.533 294.999,323.1   "></polygon>		<polygon fill="#C9DCFC" points="313.18,242.949 260.124,274.376 260.124,302.891 270.889,309.127 270.703,280.492    324.393,249.398   "></polygon>		<polygon fill="#0261AF" points="260.124,274.376 270.703,280.492 270.889,309.127 260.124,302.891   "></polygon>		<polygon fill="#4486FB" points="331.445,257.36 325.683,260.742 336.288,266.83 342.092,263.49   "></polygon>	</g></g></svg>